<?xml version="1.0" encoding="utf-8"?>
<!-- Generator: Adobe Illustrator 23.0.1, SVG Export Plug-In . SVG Version: 6.00 Build 0)  -->
<svg version="1.1"
	 id="svg2" inkscape:version="0.92.4 (5da689c313, 2019-01-14)" sodipodi:docname="LOGO1.svg" xmlns:cc="http://creativecommons.org/ns#" xmlns:dc="http://purl.org/dc/elements/1.1/" xmlns:inkscape="http://www.inkscape.org/namespaces/inkscape" xmlns:rdf="http://www.w3.org/1999/02/22-rdf-syntax-ns#" xmlns:sodipodi="http://sodipodi.sourceforge.net/DTD/sodipodi-0.dtd" xmlns:svg="http://www.w3.org/2000/svg"
	 xmlns="http://www.w3.org/2000/svg" xmlns:xlink="http://www.w3.org/1999/xlink" x="0px" y="0px" viewBox="0 0 899 1066.7"
	 style="enable-background:new 0 0 899 1066.7;" xml:space="preserve">
<style type="text/css">
	.st0{fill:#B0D2CA;}
	.st1{fill:#40878C;}
	.st2{enable-background:new    ;}
	.st3{fill:#0E3A6B;}
</style>
<sodipodi:namedview  bordercolor="#666666" borderopacity="1" gridtolerance="10" guidetolerance="10" id="namedview4" inkscape:current-layer="g338" inkscape:cx="499.52091" inkscape:cy="529.31394" inkscape:pageopacity="0" inkscape:pageshadow="2" inkscape:window-height="1017" inkscape:window-maximized="1" inkscape:window-width="1920" inkscape:window-x="-8" inkscape:window-y="-8" inkscape:zoom="0.6" objecttolerance="10" pagecolor="#ffffff" showgrid="false">
	</sodipodi:namedview>
<g id="g10" transform="matrix(1.3333333,0,0,-1.3333333,0,1066.6667)" inkscape:groupmode="layer" inkscape:label="07">
	<g id="g338" transform="translate(-12.5)">
		<g id="g6592" transform="matrix(0.86883602,0,0,0.86883602,-36.002715,118.60196)">
			<g id="g886" transform="matrix(3.7493586,0,0,3.7493586,418.54475,749.77753)">
				<path id="path888" inkscape:connector-curvature="0" class="st0" d="M0,0c0,0.7-0.1,1.4-0.2,2.1c1-0.8,2-1.5,3.1-2.1
					C1.9,0,1,0,0,0 M-3.1,4.1C-2.9,4-2.7,3.9-2.5,3.7c0.3-0.2,0.7-0.4,1-0.6C-1.5,2-1.4,1-1.3,0c-0.5,0-0.9,0-1.4,0
					C-2.5,1.4-2.6,2.7-3.1,4.1 M-5.6-0.2c0.2,1,0.4,2,0.2,3C-5,3.2-4.6,3.7-4.1,3.9c0,0,0,0,0,0c0.2-1.3,0.3-2.7,0.3-4
					C-4.4-0.1-5-0.2-5.6-0.2 M-6.6-0.3C-7.4-0.4-8.2-0.4-9-0.5C-8.1,0.2-7.3,1-6.4,1.7C-6.5,1-6.5,0.4-6.6-0.3 M7.6-0.2
					c0,0.4-0.1,0.8-0.5,1.1C4.8,2.3,2.3,3.3,0.2,5c-1,0.8-2.1,2.3-3.5,2.4c-1.2,0-2.2-1.1-3-1.8c-2.5-2.1-4.9-4.3-7.3-6.5
					c-1.3-1.2,0.5-2.7,1.6-2.2c0.2-0.1,0.4-0.3,0.7-0.3C-5-3.9,1.5-3.2,7.7-2.3C8.8-2.1,8.5-0.5,7.6-0.2"/>
			</g>
			<g id="g890" transform="matrix(3.7493586,0,0,3.7493586,476.96312,765.61257)">
				<path id="path892" inkscape:connector-curvature="0" class="st1" d="M0,0c0,0.5,0,0.9-0.1,1.4C0.6,1.3,1.3,1.3,2,1.2
					C1.3,0.9,0.6,0.4,0,0 M-2,1.5C-2,1.5-2,1.5-2,1.5c0.3,0,0.7,0,1,0C-1.1,0.7-1.1-0.1-1-0.8c-0.3-0.3-0.6-0.5-0.8-0.8
					C-1.9-0.6-1.9,0.5-2,1.5 M-5.1-0.9c0,0.7,0,1.4,0,2.1c0,0.5-0.8,0.5-0.8,0c0-0.5,0-1,0-1.5C-6.5,0-7,0.3-7.5,0.7
					c-0.6,0.4-1.2,0.8-1.7,1.1c2.1,0,4.2-0.1,6.2-0.2c-0.3-1.4-0.3-2.9,0-4.3C-3.6-2.1-4.3-1.5-5.1-0.9 M7.1,2.7c-0.1,0-0.1,0-0.2,0
					C6.8,2.9,6.6,3.1,6.2,3.2C-0.2,4.1-6.6,4.6-13,3.7c-0.4,0.2-0.7,0.3-1.1,0.4c-0.8,0.3-1.4-0.8-0.9-1.4c0-0.4,0.3-0.9,0.8-0.9
					c0.1,0,0.2,0,0.3,0c1.5-1.2,3.1-2.3,4.6-3.4c1.9-1.3,3.7-3.3,5.8-4c0.5-0.2,1,0.1,1.2,0.5c1.6,1,3.1,2.1,4.7,3.1
					c1.7,1,3.5,1.7,5.2,2.6C8.6,1.2,8.2,2.8,7.1,2.7"/>
			</g>
			<g id="g894" transform="matrix(3.7493586,0,0,3.7493586,557.01718,722.36783)">
				<path id="path896" inkscape:connector-curvature="0" class="st0" d="M0,0c0.3,0.7,0.6,1.3,0.8,2c0.6-1.1,1.1-2.3,1.7-3.3
					C1.7-0.9,0.9-0.4,0,0 M-0.9,5c0.1-0.2,0.2-0.4,0.3-0.6c0.2-0.3,0.4-0.7,0.6-1c-0.5-0.9-0.8-1.9-1.2-2.9C-1.5,0.7-2,1-2.4,1.2
					C-1.6,2.4-1.1,3.6-0.9,5 M-5.1,2.4C-4.5,3.1-3.9,4-3.6,4.9C-3,5.1-2.4,5.4-1.9,5.4c0,0,0,0,0,0c-0.4-1.3-0.9-2.5-1.5-3.7
					C-4,1.9-4.6,2.1-5.1,2.4 M-6.1,2.8c-0.7,0.3-1.5,0.6-2.2,0.9C-7.2,3.9-6.1,4.2-5,4.4C-5.3,3.9-5.6,3.3-6.1,2.8 M6.6-3.6
					c0.2,0.3,0.3,0.8,0,1.2C5.3-0.1,3.6,1.9,2.5,4.4c-0.5,1.1-0.8,3-2,3.7c-1.1,0.6-2.4,0-3.5-0.2c-3.2-0.7-6.3-1.6-9.4-2.5
					c-1.7-0.5-0.8-2.6,0.4-2.7c0.1-0.2,0.2-0.4,0.5-0.5C-6.2-1.2-0.1-3.5,5.8-5.5C6.9-5.9,7.4-4.3,6.6-3.6"/>
			</g>
			<g id="g898" transform="matrix(3.7493586,0,0,3.7493586,616.25742,709.95558)">
				<path id="path900" inkscape:connector-curvature="0" class="st1" d="M0,0c0.2,0.4,0.4,0.8,0.6,1.2c0.6-0.4,1.2-0.7,1.8-1.1
					C1.5,0.2,0.8,0.1,0,0 M-1.1,2.2C-1.1,2.2-1.1,2.2-1.1,2.2c0.3-0.1,0.6-0.3,0.9-0.5c-0.4-0.6-0.8-1.3-1.1-2
					C-1.7-0.3-2-0.5-2.4-0.6C-2,0.4-1.5,1.3-1.1,2.2 M-5,1.5C-4.6,2.1-4.3,2.7-4,3.3c0.2,0.5-0.5,0.8-0.7,0.4
					C-5,3.3-5.2,2.8-5.5,2.4C-5.8,2.9-6.1,3.5-6.4,4c-0.3,0.6-0.7,1.2-1,1.8c1.8-1,3.6-2,5.4-3c-1-1.1-1.5-2.4-1.9-3.8
					C-4.1-0.2-4.5,0.7-5,1.5 M7.6-0.8c0,0-0.1,0-0.1,0.1c0,0.3-0.1,0.6-0.5,0.8C1.7,3.8-3.8,7.1-9.9,9.2c-0.2,0.3-0.5,0.6-0.8,0.9
					c-0.5,0.6-1.6-0.1-1.4-0.8c-0.2-0.4-0.1-0.9,0.3-1.2c0.1-0.1,0.2-0.1,0.3-0.2c0.8-1.7,1.7-3.4,2.6-5.1c1.1-2,1.8-4.6,3.4-6.2
					c0.4-0.4,0.9-0.4,1.3-0.1C-2.3-3.3-0.5-3,1.4-2.8c1.9,0.1,3.8-0.1,5.8,0C8.2-2.8,8.5-1.3,7.6-0.8"/>
			</g>
			<g id="g902" transform="matrix(3.7493586,0,0,3.7493586,657.93079,640.18715)">
				<path id="path904" inkscape:connector-curvature="0" class="st0" d="M0,0c0.6,0.5,1.1,0.9,1.6,1.4c0-1.3-0.1-2.5,0.1-3.7
					C1.1-1.6,0.6-0.8,0,0 M1.5,4.9c0-0.2,0-0.4,0-0.7c0-0.4,0-0.8,0-1.2C0.8,2.4,0,1.7-0.8,1C-1,1.4-1.3,1.7-1.6,2.1
					C-0.4,2.9,0.6,3.7,1.5,4.9 M-3.5,4.4C-2.6,4.8-1.7,5.3-1,6C-0.3,6,0.3,5.9,0.8,5.7c0,0,0,0,0,0c-0.9-0.9-1.9-1.8-3-2.6
					C-2.7,3.5-3.1,4-3.5,4.4 M-4.1,5.2c-0.5,0.6-1,1.2-1.6,1.8c1.1-0.3,2.2-0.5,3.3-0.8C-3,5.8-3.5,5.5-4.1,5.2 M4.2-6.3
					c0.3,0.2,0.6,0.6,0.5,1.1C4.7-2.5,4,0,4.2,2.8C4.2,4,4.8,5.8,4,7C3.4,8,1.9,8.1,0.8,8.4c-3.1,0.8-6.3,1.4-9.5,2.1
					c-1.8,0.4-1.9-2-0.8-2.6c0-0.2,0-0.5,0.2-0.7c3.3-5.4,7.6-10.2,12-14.7C3.5-8.4,4.6-7.2,4.2-6.3"/>
			</g>
			<g id="g906" transform="matrix(3.7493586,0,0,3.7493586,705.07897,602.23314)">
				<path id="path908" inkscape:connector-curvature="0" class="st1" d="M0,0c0.4,0.3,0.7,0.5,1.1,0.9c0.4-0.6,0.7-1.2,1.1-1.8
					C1.5-0.5,0.7-0.2,0,0 M0,2.5C0,2.5,0,2.5,0,2.5c0.2-0.3,0.4-0.6,0.6-0.8c-0.7-0.4-1.3-0.8-1.8-1.3C-1.6,0.5-2,0.5-2.4,0.6
					C-1.6,1.2-0.8,1.8,0,2.5 M-3.8,3.6C-3.2,4-2.6,4.4-2.1,4.8c0.4,0.3,0,1-0.5,0.7C-3,5.2-3.4,4.9-3.8,4.6c0,0.6-0.1,1.3-0.1,1.8
					c0,0.7-0.1,1.4-0.1,2.1c1.2-1.7,2.4-3.4,3.5-5.2C-1.9,2.8-3,1.9-4,0.8C-3.8,1.7-3.7,2.6-3.8,3.6 M6.4-4.2c0,0-0.1,0.1-0.1,0.1
					c0.1,0.3,0.1,0.6,0,0.9C3.2,2.6-0.2,8-4.7,12.7c-0.1,0.4-0.2,0.8-0.3,1.1c-0.2,0.8-1.5,0.7-1.6-0.1c-0.3-0.3-0.5-0.8-0.3-1.2
					c0.1-0.1,0.1-0.2,0.2-0.3c0-1.9,0-3.8,0-5.7c0-2.3-0.5-4.9,0.2-7.1C-6.3-1-5.8-1.2-5.3-1.2c1.7-0.7,3.5-1.2,5.2-2
					C1.7-3.9,3.3-5,5-5.8C6-6.2,7-5,6.4-4.2"/>
			</g>
			<g id="g910" transform="matrix(3.7493586,0,0,3.7493586,710.53654,521.14989)">
				<path id="path912" inkscape:connector-curvature="0" class="st0" d="M0,0c0.7,0.2,1.4,0.3,2.1,0.5C1.5-0.6,0.9-1.7,0.4-2.8
					C0.3-1.9,0.2-0.9,0,0 M3.6,3.7C3.5,3.5,3.4,3.3,3.3,3C3.1,2.7,3,2.3,2.8,2c-1-0.1-2-0.4-3-0.7c-0.1,0.5-0.2,0.9-0.2,1.4
					C0.9,2.7,2.3,3,3.6,3.7 M-1.1,5.5c1-0.1,2-0.1,3,0.3c0.5-0.3,1.1-0.7,1.4-1.1c0,0,0,0,0,0c-1.3-0.4-2.6-0.8-3.9-1
					C-0.8,4.3-0.9,4.9-1.1,5.5 M-1.3,6.5C-1.5,7.3-1.7,8-1.9,8.8c0.9-0.7,1.7-1.5,2.6-2.2C0,6.6-0.7,6.5-1.3,6.5 M0.9-7.5
					c0.4,0,0.8,0.2,1,0.7c1.1,2.4,1.7,5,3.1,7.4C5.6,1.7,7,3,6.8,4.4c-0.2,1.2-1.4,2-2.2,2.7c-2.5,2.1-5,4.1-7.5,6.2
					c-1.4,1.1-2.6-0.9-1.9-2c-0.1-0.2-0.2-0.4-0.2-0.7C-4.6,4.3-2.9-2-1.1-7.9C-0.7-9.1,0.9-8.5,0.9-7.5"/>
			</g>
			<g id="g914" transform="matrix(3.7493586,0,0,3.7493586,735.31529,465.92783)">
				<path id="path916" inkscape:connector-curvature="0" class="st1" d="M0,0c0.4,0.1,0.9,0.2,1.3,0.3c0.1-0.7,0.1-1.4,0.2-2.1
					C1-1.1,0.5-0.5,0,0 M1.2,2.2C1.2,2.2,1.2,2.2,1.2,2.2c0.1-0.3,0.1-0.7,0.1-1C0.5,1.2-0.2,1-1,0.9c-0.3,0.3-0.6,0.5-0.9,0.7
					C-0.9,1.8,0.1,2,1.2,2.2 M-1.7,4.9C-1,5-0.3,5.1,0.3,5.2C0.9,5.3,0.7,6.1,0.2,6c-0.5-0.1-1-0.1-1.5-0.2C-1,6.4-0.8,7-0.5,7.5
					c0.3,0.6,0.6,1.3,0.8,1.9c0.3-2.1,0.5-4.1,0.8-6.2C-0.4,3.3-1.8,3-3.2,2.5C-2.6,3.2-2.1,4.1-1.7,4.9 M3.8-6.6c0,0.1,0,0.1,0,0.1
					C4-6.3,4.1-6,4.1-5.6c-0.1,6.5-0.6,12.8-2.5,19c0.1,0.4,0.2,0.7,0.3,1.1c0.2,0.8-1,1.3-1.5,0.7c-0.4-0.1-0.8-0.4-0.8-0.9
					c0-0.1,0-0.2,0-0.3c-0.9-1.7-1.8-3.4-2.6-5.1c-1-2-2.7-4.1-3-6.4c-0.1-0.6,0.3-1,0.7-1.1C-4,0-2.7-1.3-1.5-2.8
					c1.2-1.5,2.2-3.2,3.4-4.7C2.5-8.3,4-7.6,3.8-6.6"/>
			</g>
			<g id="g918" transform="matrix(3.7493586,0,0,3.7493586,703.36664,391.20425)">
				<path id="path920" inkscape:connector-curvature="0" class="st0" d="M0,0c0.7-0.2,1.4-0.4,2.1-0.5C1-1.2,0-1.9-0.9-2.7
					C-0.6-1.8-0.3-0.9,0,0 M4.8,1.6C4.7,1.5,4.5,1.4,4.3,1.2C4,0.9,3.7,0.7,3.4,0.5c-1,0.3-2,0.5-3,0.7c0.1,0.4,0.3,0.9,0.4,1.3
					C2.1,2,3.4,1.7,4.8,1.6 M1.5,5.4c0.8-0.5,1.8-1,2.8-1.1C4.6,3.8,4.9,3.2,5,2.7c0,0,0,0,0,0C3.7,2.9,2.3,3.2,1.1,3.6
					C1.2,4.2,1.4,4.8,1.5,5.4 M1.8,6.4C2,7.2,2.1,7.9,2.3,8.7c0.4-1,0.9-2.1,1.3-3.1C3,5.8,2.4,6.1,1.8,6.4 M-2.6-7.1
					c0.4-0.2,0.8-0.1,1.2,0.2c2.1,1.7,3.8,3.7,6.1,5.2C5.8-1.1,7.6-0.5,8,0.9C8.4,2,7.7,3.3,7.3,4.3c-1.2,3-2.6,6-3.9,8.9
					c-0.7,1.6-2.7,0.3-2.6-0.9c-0.2-0.1-0.4-0.3-0.5-0.5C-2.1,6-3.5-0.4-4.5-6.6C-4.7-7.8-3.1-8-2.6-7.1"/>
			</g>
			<g id="g922" transform="matrix(3.7493586,0,0,3.7493586,700.37428,330.75146)">
				<path id="path924" inkscape:connector-curvature="0" class="st1" d="M0,0c0.4-0.1,0.9-0.3,1.3-0.4C1.1-1,0.8-1.6,0.5-2.3
					C0.4-1.5,0.2-0.7,0,0 M2,1.4C2,1.4,2,1.4,2,1.4C1.9,1.1,1.8,0.8,1.7,0.5C1,0.8,0.3,1-0.5,1.2c-0.2,0.4-0.3,0.7-0.5,1
					C0,2,1,1.7,2,1.4 M0.7,5.2c0.7-0.2,1.3-0.4,2-0.6c0.5-0.1,0.8,0.6,0.3,0.8C2.5,5.5,2,5.6,1.5,5.8C2,6.2,2.5,6.6,3,6.9
					C3.5,7.3,4,7.8,4.6,8.2c-0.7-2-1.4-3.9-2.1-5.9C1.2,3.2-0.2,3.5-1.7,3.7C-0.9,4.1-0.1,4.6,0.7,5.2 M0.4-7.6c0,0,0,0.1,0,0.2
					c0.3,0,0.6,0.2,0.7,0.6C4-1,6.4,4.9,7.5,11.2c0.3,0.3,0.5,0.6,0.8,0.9c0.5,0.6-0.3,1.6-1,1.3c-0.4,0.1-0.9,0-1.1-0.5
					c0-0.1-0.1-0.2-0.1-0.3C4.5,11.5,3,10.4,1.4,9.2c-1.8-1.4-4.3-2.5-5.6-4.3c-0.3-0.5-0.2-1,0.1-1.3C-3.6,1.8-3,0-2.6-1.8
					c0.4-1.9,0.5-3.8,0.9-5.7C-1.5-8.5,0.1-8.6,0.4-7.6"/>
			</g>
			<g id="g926" transform="matrix(3.7493586,0,0,3.7493586,637.9842,278.67662)">
				<path id="path928" inkscape:connector-curvature="0" class="st0" d="M0,0c0.5-0.5,1.1-0.9,1.6-1.4C0.4-1.6-0.9-1.7-2.1-2
					C-1.4-1.4-0.7-0.7,0,0 M5.1-0.7c-0.2,0-0.4-0.1-0.7-0.1C4-1,3.6-1,3.2-1.1c-0.7,0.7-1.5,1.4-2.4,2c0.3,0.3,0.6,0.7,1,1
					C2.8,0.8,3.8-0.1,5.1-0.7 M3.8,4.1C4.4,3.3,5,2.5,5.8,1.9c0-0.6,0-1.3-0.1-1.8c0,0,0,0,0,0C4.6,1,3.6,1.8,2.6,2.8
					C3,3.2,3.4,3.7,3.8,4.1 M4.5,4.9C5,5.5,5.5,6.1,6,6.7C5.9,5.6,5.8,4.5,5.8,3.4C5.3,3.8,4.9,4.4,4.5,4.9 M-5.5-5.2
					c0.2-0.3,0.6-0.5,1.1-0.4C-1.7-5,0.7-4,3.4-3.7c1.2,0.1,3.1-0.2,4.2,0.8c0.9,0.8,0.8,2.3,0.9,3.4C8.7,3.7,8.8,7,9,10.2
					c0.1,1.8-2.3,1.5-2.7,0.4c-0.2,0-0.5-0.1-0.7-0.3C0.8,6.3-3.3,1.2-7-3.8C-7.7-4.8-6.4-5.7-5.5-5.2"/>
			</g>
			<g id="g930" transform="matrix(3.7493586,0,0,3.7493586,607.8731,226.17172)">
				<path id="path932" inkscape:connector-curvature="0" class="st1" d="M0,0c0.3-0.3,0.7-0.6,1-0.9C0.5-1.4,0-1.8-0.5-2.3
					C-0.3-1.5-0.1-0.8,0,0 M2.4,0.4C2.5,0.4,2.5,0.3,2.4,0.4C2.2,0.1,2-0.1,1.7-0.3c-0.5,0.6-1,1.1-1.5,1.6c0,0.4,0,0.8,0,1.2
					C1,1.8,1.7,1.1,2.4,0.4 M3,4.3c0.5-0.5,1-1,1.5-1.5C4.8,2.4,5.4,3,5,3.4C4.7,3.8,4.3,4.1,4,4.5c0.6,0.1,1.2,0.3,1.8,0.4
					c0.7,0.1,1.4,0.3,2,0.4C6.3,3.8,4.8,2.4,3.2,1C2.5,2.3,1.4,3.2,0.2,4C1.1,4,2,4.1,3,4.3 M-3.1-6.9c0,0,0.1,0.1,0.1,0.1
					c0.3-0.1,0.6,0,0.9,0.2c5.2,3.9,10,8,13.9,13.2c0.4,0.1,0.7,0.3,1.1,0.4c0.7,0.3,0.4,1.6-0.3,1.6c-0.3,0.3-0.8,0.4-1.2,0.1
					c-0.1-0.1-0.2-0.2-0.2-0.2C9.2,8.2,7.3,7.9,5.5,7.6C3.2,7.2,0.6,7.3-1.5,6.3C-2,6-2.1,5.5-2,5c-0.4-1.8-0.7-3.7-1.1-5.5
					C-3.6-2.3-4.4-4-4.9-5.9C-5.2-6.9-3.8-7.7-3.1-6.9"/>
			</g>
			<g id="g934" transform="matrix(3.7493586,0,0,3.7493586,528.64166,208.0972)">
				<path id="path936" inkscape:connector-curvature="0" class="st0" d="M0,0c0.3-0.7,0.5-1.3,0.8-2c-1.2,0.4-2.4,0.8-3.6,1.1
					C-1.8-0.6-0.9-0.3,0,0 M4.2-3C4-2.9,3.8-2.8,3.5-2.8C3.1-2.7,2.8-2.6,2.4-2.5c-0.3,1-0.7,1.9-1.2,2.9c0.4,0.2,0.9,0.3,1.3,0.5
					C2.8-0.5,3.4-1.8,4.2-3 M5.3,1.9c0.1-1,0.3-2,0.7-2.9C5.8-1.5,5.5-2.1,5.2-2.5c0,0,0,0,0,0C4.5-1.2,4,0,3.6,1.3
					C4.2,1.5,4.7,1.7,5.3,1.9 M6.2,2.3C7,2.6,7.7,2.9,8.4,3.3c-0.6-1-1.2-1.9-1.7-2.9C6.5,1,6.3,1.7,6.2,2.3 M-7.3-2.1
					C-7.2-2.5-6.9-2.8-6.4-3c2.6-0.7,5.2-0.9,7.8-1.9C2.5-5.3,4.1-6.4,5.4-6c1.1,0.3,1.7,1.7,2.3,2.6C9.4-0.6,11,2.2,12.6,5
					c0.9,1.6-1.3,2.4-2.2,1.6c-0.2,0.1-0.5,0.1-0.7,0.1C3.6,5.2-2.4,2.6-8-0.2C-9.1-0.7-8.3-2.2-7.3-2.1"/>
			</g>
			<g id="g938" transform="matrix(3.7493586,0,0,3.7493586,477.97583,174.9851)">
				<path id="path940" inkscape:connector-curvature="0" class="st1" d="M0,0c0.1-0.4,0.3-0.9,0.5-1.3c-0.7-0.2-1.3-0.3-2-0.5
					C-1-1.2-0.5-0.6,0,0 M2.3-0.8C2.3-0.8,2.4-0.8,2.3-0.8C2-0.9,1.7-1,1.4-1.1C1.2-0.3,1,0.4,0.7,1.1c0.2,0.3,0.4,0.7,0.6,1
					C1.7,1.1,2,0.2,2.3-0.8 M4.6,2.5c0.2-0.7,0.4-1.3,0.6-2C5.4,0,6.2,0.2,6,0.7c-0.1,0.5-0.3,1-0.5,1.4C6.2,2,6.8,1.8,7.3,1.7
					c0.7-0.2,1.3-0.4,2-0.5c-2-0.6-4-1.2-6-1.7C3.2,0.9,2.7,2.3,2,3.5C2.8,3.1,3.7,2.7,4.6,2.5 M-5.9-4.8c0,0,0.1,0,0.1,0.1
					C-5.6-4.9-5.3-5-4.9-4.9C1.5-3.9,7.7-2.3,13.5,0.5c0.4,0,0.8-0.1,1.2-0.1c0.8,0,1.1,1.2,0.5,1.6c-0.1,0.4-0.6,0.8-1,0.6
					c-0.1,0-0.2-0.1-0.3-0.1c-1.8,0.6-3.6,1.2-5.4,1.8c-2.2,0.7-4.5,2-6.8,2c-0.6,0-0.9-0.4-1-0.9C-0.7,4-1.7,2.4-3,1
					C-4.2-0.4-5.7-1.6-7.1-3C-7.8-3.8-6.9-5.1-5.9-4.8"/>
			</g>
			<g id="g942" transform="matrix(3.7493586,0,0,3.7493586,399.17406,194.85109)">
				<path id="path944" inkscape:connector-curvature="0" class="st0" d="M0,0c-0.1-0.7-0.1-1.4-0.2-2.1C-1-1.2-1.9-0.3-2.8,0.5
					C-1.9,0.3-0.9,0.1,0,0 M2.4-4.5C2.2-4.4,2.1-4.3,1.9-4.1C1.6-3.8,1.3-3.5,1-3.3c0.2,1,0.2,2.1,0.2,3.1c0.5-0.1,0.9-0.1,1.4-0.2
					C2.3-1.7,2.2-3.1,2.4-4.5 M5.6-0.7C5.2-1.6,4.9-2.6,4.9-3.6c-0.5-0.4-1-0.8-1.5-1c0,0,0,0,0,0c0,1.3,0.1,2.7,0.3,4
					C4.4-0.6,5-0.6,5.6-0.7 M6.6-0.8C7.4-0.8,8.2-0.9,9-0.9C8-1.5,7-2.1,6.1-2.7C6.2-2,6.4-1.4,6.6-0.8 M-7.4,1.4
					c-0.1-0.4,0-0.8,0.4-1.1c2-1.8,4.2-3.2,6.1-5.2c0.8-0.9,1.7-2.6,3.1-2.9C3.3-8,4.4-7.1,5.3-6.5c2.8,1.7,5.5,3.5,8.2,5.3
					c1.5,1-0.1,2.8-1.3,2.5c-0.2,0.2-0.4,0.3-0.6,0.4C5.6,3-0.9,3.4-7.2,3.5C-8.4,3.5-8.4,1.8-7.4,1.4"/>
			</g>
			<g id="g946" transform="matrix(3.7493586,0,0,3.7493586,338.9976,188.34932)">
				<path id="path948" inkscape:connector-curvature="0" class="st1" d="M0,0c-0.1-0.4-0.1-0.9-0.1-1.4c-0.7,0.2-1.3,0.3-2,0.5
					C-1.4-0.6-0.7-0.3,0,0 M1.7-1.8C1.7-1.8,1.7-1.8,1.7-1.8c-0.3,0-0.7,0.1-1,0.2C1-0.8,1.1-0.1,1.2,0.6c0.3,0.2,0.7,0.4,1,0.7
					C2,0.3,1.8-0.7,1.7-1.8 M5.2,0.1C5.1-0.6,5-1.2,4.9-1.9C4.8-2.5,5.6-2.6,5.7-2.1c0.1,0.5,0.2,1,0.2,1.5C6.4-1,6.9-1.4,7.3-1.8
					c0.5-0.5,1-0.9,1.5-1.4C6.8-2.8,4.8-2.4,2.7-2c0.6,1.4,0.7,2.8,0.6,4.2C3.9,1.5,4.5,0.8,5.2,0.1 M-7.4-1.6c0.1,0,0.1,0,0.2,0
					C-7.2-1.8-7-2.1-6.6-2.2c6.2-1.9,12.4-3.3,18.8-3.5c0.3-0.2,0.7-0.4,1-0.6c0.7-0.4,1.5,0.6,1.1,1.2c0.1,0.4-0.2,0.9-0.7,1
					c-0.1,0-0.2,0-0.3,0.1c-1.3,1.4-2.7,2.7-4,4C7.7,1.6,6.3,3.8,4.2,4.9C3.7,5.2,3.2,5,2.9,4.6C1.2,3.9-0.4,3-2.2,2.3
					C-4,1.6-5.8,1.2-7.7,0.5C-8.6,0.2-8.5-1.4-7.4-1.6"/>
			</g>
			<g id="g950" transform="matrix(3.7493586,0,0,3.7493586,277.80431,241.8253)">
				<path id="path952" inkscape:connector-curvature="0" class="st0" d="M0,0c-0.4-0.6-0.8-1.2-1.1-1.8c-0.4,1.2-0.7,2.4-1.2,3.5
					C-1.6,1.1-0.8,0.6,0,0 M0.1-5.1C0-4.9-0.1-4.7-0.2-4.5c-0.2,0.4-0.3,0.7-0.4,1.1C0-2.5,0.5-1.6,1-0.7C1.4-1,1.8-1.3,2.2-1.5
					C1.3-2.6,0.5-3.8,0.1-5.1 M4.7-3.2C3.9-3.8,3.2-4.5,2.8-5.4C2.2-5.6,1.5-5.7,1-5.6c0,0,0,0,0,0c0.6,1.2,1.3,2.4,2.1,3.4
					C3.6-2.5,4.2-2.8,4.7-3.2 M5.6-3.7c0.7-0.4,1.3-0.8,2-1.2C6.5-5,5.3-5,4.2-5.2C4.6-4.6,5.1-4.1,5.6-3.7 M-6,4.6
					c-0.3-0.3-0.4-0.7-0.2-1.2c0.9-2.5,2.3-4.7,3-7.4c0.3-1.2,0.3-3.1,1.4-4c1-0.7,2.4-0.4,3.5-0.3C5-8,8.3-7.6,11.5-7.3
					c1.8,0.2,1.2,2.5,0,2.8c-0.1,0.2-0.2,0.4-0.4,0.6C6.3,0.2,0.7,3.5-4.9,6.4C-5.9,6.9-6.6,5.4-6,4.6"/>
			</g>
			<g id="g954" transform="matrix(3.7493586,0,0,3.7493586,221.23512,263.35187)">
				<path id="path956" inkscape:connector-curvature="0" class="st1" d="M0,0c-0.3-0.4-0.5-0.7-0.7-1.1c-0.5,0.4-1.1,0.9-1.6,1.3
					C-1.5,0.1-0.8,0,0,0 M0.7-2.4C0.7-2.4,0.7-2.4,0.7-2.4C0.5-2.2,0.2-1.9,0-1.7C0.5-1.2,0.9-0.6,1.3,0c0.4,0,0.8,0.1,1.2,0.1
					C1.9-0.7,1.3-1.5,0.7-2.4 M4.7-2.3C4.3-2.8,3.9-3.4,3.5-3.9C3.2-4.4,3.8-4.8,4.1-4.4C4.4-4,4.7-3.6,5-3.2
					c0.2-0.6,0.5-1.2,0.6-1.7c0.2-0.7,0.5-1.3,0.8-1.9C4.8-5.6,3.1-4.3,1.5-3c1.1,1,1.9,2.2,2.5,3.5C4.1-0.4,4.4-1.4,4.7-2.3
					 M-7.3,2c0,0,0.1,0,0.1-0.1c0-0.3,0-0.6,0.3-0.9c4.6-4.5,9.5-8.6,15.2-11.7c0.2-0.3,0.4-0.7,0.6-1c0.4-0.7,1.6-0.2,1.5,0.6
					c0.2,0.4,0.3,0.9-0.1,1.2c-0.1,0.1-0.2,0.1-0.3,0.2C9.6-7.8,9-6,8.3-4.2C7.6-2.1,7.3,0.6,6,2.4C5.7,2.9,5.1,3,4.7,2.7
					C2.8,2.9,1,2.8-0.9,3c-1.9,0.2-3.8,0.7-5.7,0.9C-7.6,4.1-8.2,2.6-7.3,2"/>
			</g>
			<g id="g958" transform="matrix(3.7493586,0,0,3.7493586,190.98868,338.78071)">
				<path id="path960" inkscape:connector-curvature="0" class="st0" d="M0,0c-0.6-0.4-1.2-0.7-1.8-1.1c0.2,1.2,0.5,2.5,0.5,3.7
					C-0.9,1.7-0.4,0.9,0,0 M-2.3-4.6c0,0.2,0.1,0.4,0.1,0.7c0,0.4,0.1,0.8,0.1,1.2c0.9,0.5,1.8,1,2.7,1.6C0.8-1.5,1-1.9,1.2-2.3
					C-0.1-2.9-1.2-3.6-2.3-4.6 M2.7-4.9C1.8-5.2,0.8-5.5,0-6.1c-0.6,0.2-1.2,0.4-1.7,0.6c0,0,0,0,0,0c1.1,0.8,2.2,1.5,3.4,2.1
					C2.1-3.9,2.4-4.4,2.7-4.9 M3.3-5.8c0.4-0.7,0.8-1.3,1.3-2c-1,0.4-2.1,0.8-3.1,1.3C2-6.2,2.6-6,3.3-5.8 M-3.2,6.8
					c-0.4-0.1-0.6-0.5-0.7-1c-0.3-2.7-0.1-5.3-0.6-8C-4.8-3.3-5.7-5-5.1-6.3c0.5-1.1,2-1.4,3-1.9c3-1.3,6-2.4,9.1-3.5
					c1.7-0.6,2.2,1.7,1.2,2.5c0,0.2,0,0.5-0.1,0.7C5.7-2.7,2.2,2.8-1.4,7.9C-2.1,8.8-3.4,7.8-3.2,6.8"/>
			</g>
			<g id="g962" transform="matrix(3.7493586,0,0,3.7493586,150.35799,383.64292)">
				<path id="path964" inkscape:connector-curvature="0" class="st1" d="M0,0c-0.4-0.2-0.8-0.4-1.2-0.7C-1.4-0.1-1.7,0.6-2,1.2
					C-1.3,0.8-0.7,0.4,0,0 M-0.4-2.4C-0.4-2.4-0.4-2.5-0.4-2.4c-0.2,0.3-0.3,0.6-0.4,0.9c0.7,0.3,1.4,0.6,2,1
					c0.4-0.1,0.7-0.3,1.1-0.4C1.4-1.5,0.5-1.9-0.4-2.4 M3.1-4.1C2.5-4.4,1.9-4.7,1.3-5.1C0.8-5.3,1.2-6,1.7-5.8
					C2.1-5.6,2.6-5.4,3-5.1C2.9-5.8,2.9-6.4,2.8-7C2.7-7.7,2.7-8.4,2.6-9C1.7-7.2,0.8-5.3,0-3.4c1.4,0.3,2.7,1.1,3.8,2
					C3.5-2.3,3.3-3.2,3.1-4.1 M-5.6,5.1c0,0,0.1-0.1,0.1-0.1C-5.7,4.7-5.8,4.4-5.6,4c2.1-6.1,4.6-12,8.3-17.3c0-0.4,0-0.8,0.1-1.2
					c0.1-0.8,1.4-0.9,1.6-0.2c0.4,0.2,0.7,0.7,0.4,1.1c-0.1,0.1-0.1,0.2-0.2,0.3C5-11.3,5.3-9.4,5.5-7.5c0.3,2.3,1.3,4.7,0.9,7
					C6.4,0,5.9,0.3,5.4,0.3c-1.6,1-3.3,1.8-4.8,2.8c-1.6,1-3.1,2.3-4.6,3.4C-4.9,7.1-6.2,6-5.6,5.1"/>
			</g>
			<g id="g966" transform="matrix(3.7493586,0,0,3.7493586,157.652,464.58181)">
				<path id="path968" inkscape:connector-curvature="0" class="st0" d="M0,0c-0.7,0-1.4-0.1-2.1-0.2c0.8,1,1.5,2,2.1,3.1
					C0,1.9,0,1,0,0 M-4.1-3.1C-4-2.9-3.9-2.7-3.7-2.5c0.2,0.3,0.4,0.7,0.6,1C-2-1.5-1-1.4,0-1.3c0-0.5,0-0.9,0-1.4
					C-1.4-2.5-2.7-2.6-4.1-3.1 M0.2-5.6c-1,0.2-2,0.4-3,0.2C-3.2-5-3.7-4.6-3.9-4.1c0,0,0,0,0,0c1.3,0.2,2.7,0.4,4,0.3
					C0.1-4.4,0.2-5,0.2-5.6 M0.3-6.6C0.4-7.4,0.4-8.2,0.5-9c-0.7,0.8-1.5,1.7-2.2,2.5C-1-6.5-0.4-6.5,0.3-6.6 M0.2,7.6
					c-0.4,0-0.8-0.1-1.1-0.5C-2.3,4.8-3.3,2.3-5,0.2c-0.8-1-2.3-2.1-2.4-3.5c0-1.2,1.1-2.2,1.8-3c2.1-2.5,4.3-4.9,6.5-7.3
					c1.2-1.3,2.7,0.5,2.2,1.6c0.1,0.2,0.3,0.4,0.3,0.7C3.9-5,3.2,1.5,2.3,7.7C2.1,8.8,0.5,8.5,0.2,7.6"/>
			</g>
			<g id="g970" transform="matrix(3.7493586,0,0,3.7493586,141.81733,523.00019)">
				<path id="path972" inkscape:connector-curvature="0" class="st1" d="M0,0c-0.5,0-0.9,0-1.4-0.1c0,0.7,0.1,1.4,0.2,2.1
					C-0.9,1.3-0.4,0.6,0,0 M-1.5-2C-1.5-2-1.5-2-1.5-2c0,0.3,0,0.7,0,1C-0.7-1.1,0.1-1.1,0.8-1c0.3-0.3,0.5-0.6,0.8-0.8
					C0.6-1.9-0.5-1.9-1.5-2 M0.9-5.1c-0.7,0-1.4,0-2.1,0c-0.5,0-0.5-0.8,0-0.8c0.5,0,1,0,1.5,0C0-6.5-0.3-7-0.7-7.5
					c-0.4-0.6-0.8-1.2-1.1-1.7c0,2.1,0.1,4.2,0.2,6.2c1.4-0.3,2.9-0.3,4.3,0C2.1-3.6,1.5-4.3,0.9-5.1 M-2.7,7.1c0-0.1,0-0.1,0-0.2
					c-0.3-0.1-0.5-0.4-0.5-0.8C-4.1-0.2-4.6-6.6-3.7-13c-0.2-0.4-0.3-0.7-0.4-1.1c-0.3-0.8,0.8-1.4,1.4-0.9c0.4,0,0.9,0.3,0.9,0.8
					c0,0.1,0,0.2,0,0.3c1.2,1.5,2.3,3.1,3.4,4.6c1.3,1.9,3.3,3.7,4,5.8c0.2,0.5-0.1,1-0.5,1.2C4-0.6,2.9,0.9,1.9,2.5
					C0.9,4.2,0.2,6-0.7,7.6C-1.2,8.6-2.8,8.2-2.7,7.1"/>
			</g>
			<g id="g974" transform="matrix(3.7493586,0,0,3.7493586,185.06169,591.80617)">
				<path id="path976" inkscape:connector-curvature="0" class="st0" d="M0,0c-0.7,0.3-1.3,0.6-2,0.8c1.1,0.6,2.3,1.1,3.3,1.7
					C0.9,1.7,0.4,0.9,0,0 M-5-0.9c0.2,0.1,0.4,0.2,0.6,0.3c0.3,0.2,0.7,0.4,1,0.6c0.9-0.5,1.9-0.8,2.9-1.2C-0.7-1.5-1-2-1.2-2.4
					C-2.4-1.6-3.6-1.1-5-0.9 M-2.4-5.1C-3.1-4.5-4-3.9-4.9-3.6C-5.1-3-5.4-2.4-5.4-1.9c0,0,0,0,0,0c1.3-0.4,2.5-0.9,3.7-1.5
					C-1.9-4-2.1-4.6-2.4-5.1 M-2.8-6.1c-0.3-0.7-0.6-1.5-0.9-2.2C-3.9-7.2-4.2-6.1-4.4-5C-3.9-5.3-3.3-5.6-2.8-6.1 M3.6,6.6
					c-0.3,0.2-0.8,0.3-1.2,0C0.1,5.3-1.9,3.6-4.4,2.5c-1.1-0.5-3-0.8-3.7-2c-0.6-1.1,0-2.4,0.2-3.5c0.7-3.2,1.6-6.3,2.5-9.4
					c0.5-1.7,2.6-0.8,2.7,0.4c0.2,0.1,0.4,0.2,0.5,0.5C1.2-6.2,3.5-0.1,5.5,5.8C5.9,6.9,4.3,7.4,3.6,6.6"/>
			</g>
			<g id="g978" transform="matrix(3.7493586,0,0,3.7493586,197.47393,651.04605)">
				<path id="path980" inkscape:connector-curvature="0" class="st1" d="M0,0c-0.4,0.2-0.8,0.4-1.2,0.6c0.4,0.6,0.7,1.2,1.1,1.8
					C-0.2,1.5-0.1,0.8,0,0 M-2.2-1.1C-2.2-1.1-2.2-1.1-2.2-1.1c0.1,0.3,0.3,0.6,0.5,0.9c0.6-0.4,1.3-0.8,2-1.1
					C0.3-1.7,0.5-2,0.6-2.4C-0.4-2-1.3-1.5-2.2-1.1 M-1.5-5C-2.1-4.6-2.7-4.3-3.3-4c-0.5,0.2-0.8-0.5-0.4-0.7
					C-3.3-5-2.8-5.2-2.4-5.5C-2.9-5.8-3.5-6.1-4-6.4c-0.6-0.3-1.2-0.7-1.8-1c1,1.8,2,3.6,3,5.4c1.1-1,2.4-1.5,3.8-1.9
					C0.2-4.1-0.7-4.5-1.5-5 M0.8,7.6c0,0,0-0.1-0.1-0.1C0.5,7.4,0.2,7.3,0,6.9c-3.8-5.3-7-10.7-9.1-16.8c-0.3-0.2-0.6-0.5-0.9-0.8
					c-0.6-0.5,0.1-1.6,0.8-1.4c0.4-0.2,0.9-0.1,1.2,0.3c0.1,0.1,0.1,0.2,0.2,0.3c1.7,0.8,3.4,1.7,5.1,2.6c2,1.1,4.6,1.8,6.2,3.4
					c0.4,0.4,0.4,0.9,0.1,1.3C3.3-2.3,3-0.5,2.8,1.4c-0.1,1.9,0.1,3.8,0,5.8C2.8,8.2,1.3,8.5,0.8,7.6"/>
			</g>
			<g id="g982" transform="matrix(3.7493586,0,0,3.7493586,280.22941,706.72063)">
				<path id="path984" inkscape:connector-curvature="0" class="st0" d="M0,0c-0.4,0.6-0.8,1.2-1.2,1.7C0,1.6,1.3,1.4,2.5,1.4
					C1.7,1,0.8,0.5,0,0 M-4.7,2C-4.5,2-4.3,2-4,2c0.4,0,0.8,0,1.2-0.1C-2.3,1-1.7,0.2-1.1-0.7c-0.4-0.2-0.8-0.5-1.2-0.7
					C-2.9-0.1-3.7,1-4.7,2 M-4.8-3c-0.3,1-0.7,1.9-1.3,2.7C-6,0.2-5.8,0.9-5.6,1.3c0,0,0,0,0,0c0.9-1,1.6-2.1,2.3-3.3
					C-3.7-2.3-4.3-2.7-4.8-3 M-5.6-3.6C-6.2-4.1-6.9-4.5-7.5-5c0.4,1.1,0.7,2.1,1.1,3.2C-6.1-2.4-5.8-3-5.6-3.6 M6.6,3.6
					C6.5,4,6.1,4.2,5.6,4.3C2.9,4.4,0.3,4-2.4,4.4c-1.2,0.2-3,1-4.2,0.3c-1-0.6-1.3-2-1.7-3.1c-1.1-3.1-2-6.2-3-9.3
					c-0.5-1.7,1.8-2.1,2.5-1.1c0.2,0,0.5,0,0.7,0.1C-2.4-5.9,2.9-2,7.8,1.9C8.7,2.7,7.6,3.9,6.6,3.6"/>
			</g>
			<g id="g986" transform="matrix(3.7493586,0,0,3.7493586,322.53416,750.00773)">
				<path id="path988" inkscape:connector-curvature="0" class="st1" d="M0,0c-0.2,0.4-0.5,0.8-0.8,1.1C-0.1,1.4,0.5,1.8,1.1,2
					C0.7,1.4,0.3,0.7,0,0 M-2.5,0.3C-2.5,0.3-2.5,0.3-2.5,0.3c0.3,0.2,0.6,0.3,0.9,0.5c0.3-0.7,0.7-1.3,1.1-2
					C-0.6-1.6-0.7-2-0.8-2.3C-1.4-1.5-1.9-0.6-2.5,0.3 M-3.9-3.4c-0.3,0.6-0.7,1.2-1,1.8c-0.3,0.4-1,0-0.7-0.4
					C-5.5-2.5-5.2-2.9-5-3.3c-0.6,0-1.3,0.1-1.8,0.1c-0.7,0-1.4,0.1-2.1,0.1c1.8,1,3.6,2,5.5,3C-3-1.6-2.2-2.8-1.2-3.9
					C-2-3.6-3-3.5-3.9-3.4 M4.8,5.9c0,0-0.1-0.1-0.1-0.1C4.4,6,4.1,6,3.7,5.9C-2.3,3.4-8,0.6-13.1-3.4c-0.4-0.1-0.8-0.1-1.1-0.2
					C-15-3.7-15.1-5-14.3-5.2c0.2-0.4,0.7-0.6,1.1-0.4c0.1,0.1,0.2,0.1,0.3,0.2C-11-5.6-9.1-5.8-7.2-6c2.3-0.2,4.8-1,7-0.5
					c0.6,0.1,0.8,0.6,0.8,1.1c0.9,1.6,1.6,3.4,2.5,5c0.9,1.7,2.1,3.2,3.1,4.8C6.8,5.4,5.6,6.5,4.8,5.9"/>
			</g>
		</g>
		<g class="st2">
			<path class="st3" d="M492.4,397.2c0.3-1-0.4-1.8-2-2.3l-5.1-0.8l-25.8-4.7l-4.7-0.8c-0.5-0.3-1.1-0.1-1.8,0.6
				c-0.7,0.7-1,1.2-1,1.8c0,2.3-0.1,6.1-0.4,11.1c-0.3,5.1-0.7,10.5-1.2,16.2c-0.5,5.7-1.1,11.3-1.8,16.6c-0.7,5.3-1.1,9.4-1.4,12.3
				l-14.5,114.6c0,1.8-0.5,2.1-1.6,0.8l-59-122.4c-1.3-2.6-2.7-5.7-4.3-9.2c-1.6-3.5-3.1-7.1-4.7-10.8c-1.6-3.7-3.1-7.2-4.5-10.6
				c-1.4-3.4-2.7-6.3-3.7-8.6c-1-3.4-2.2-5.3-3.5-5.9l-7.4-2.7c-1.8-0.5-3.3,0.3-4.3,2.3c-0.8,2.3-2.2,5.9-4.3,10.8
				c-2.1,4.8-4.4,10-6.8,15.6c-2.5,5.6-5,11.2-7.4,16.8c-2.5,5.6-4.5,10.2-6.1,13.9l-53.2,110.6c-0.8,1-1.3,0.8-1.6-0.8l-13.7-109.5
				c-0.3-2.6-0.7-6.6-1.2-11.9c-0.5-5.3-1.1-10.9-1.8-16.8c-0.7-5.9-1.1-11.3-1.4-16.4c-0.3-5.1-0.4-8.8-0.4-11.1
				c0-1.6-0.9-2.3-2.7-2.3h-2.7h-30.9H203c-1.8,0-2.5,0.8-2,2.3c0.8,2.3,1.7,6.1,2.7,11.1c1,5.1,2,10.6,2.9,16.4
				c0.9,5.9,1.8,11.5,2.7,16.8c0.9,5.3,1.5,9.3,1.8,11.9L232,608.7c0.3,2.3,0.6,6,1.2,10.9c0.5,4.9,1,10.2,1.4,15.6
				c0.4,5.5,0.8,10.8,1.2,15.8s0.6,8.9,0.6,11.5c0,2.6,0.8,4.3,2.3,5.1l7.8,2.7c1.6,0.3,2.7-0.4,3.5-2c1-3.1,2.6-7.2,4.7-12.3
				c2.1-5.1,4.3-10.5,6.6-16.2c2.3-5.7,4.7-11.4,7-17c2.3-5.6,4.6-10.5,6.6-14.7l70.4-146.2c0.5-1.3,1-2,1.4-2s0.8,0.6,1.4,2
				l70.8,146.2c1,2.3,2.7,6.1,5.1,11.3c2.3,5.2,4.8,10.8,7.4,16.6c2.6,5.9,5.1,11.5,7.4,16.8c2.3,5.3,3.9,9.3,4.7,11.9
				c0.5,1.6,1.7,2.3,3.5,2.3h2.7h2h2.7c1.8,0,2.7-0.8,2.7-2.3c0-2.6,0.2-6.5,0.6-11.7c0.4-5.2,0.8-10.8,1.4-16.6
				c0.5-5.9,1-11.4,1.6-16.6c0.5-5.2,0.9-9,1.2-11.3l20.3-155.2c0.3-2.9,0.8-7,1.8-12.3c0.9-5.3,1.9-10.9,2.9-16.6
				c1-5.7,2-11.1,2.9-16.2C490.7,403.3,491.6,399.6,492.4,397.2z"/>
		</g>
		<g class="st2">
			<path d="M137,87.3c-0.1-0.4-0.4-0.7-0.9-0.9c-0.4,0.1-0.7,0.2-0.9,0.4c-2.9,5.8-8,16.4-15.4,31.8c-5,10.6-10,21.1-14.9,31.4
				c-4.9,10.3-10.1,21.2-15.6,32.5c-0.2,0.6-0.5,1-0.9,1.2c-0.6,0.5-1.1,0.5-1.4,0c-0.5-0.2-0.8-1-1.1-2.1c-1-8.3-2.2-18.1-3.8-29.3
				c-1.6-11.2-2.7-20.7-3.4-28.6c-1.1-11.1-1.6-20.6-1.6-28.4c0-1.9,0-3,0-3.4c0-1.1,0.2-2,0.5-2.9c0.4-0.8,0.5-1.4,0.5-1.8
				c0-1-1.3-1.4-3.9-1.4c-1.2,0-2.3,0.1-3.4,0.4c-1.1,0.2-1.5,0.5-1.4,0.9c0,0.1,0.6,1.2,1.7,3.4c1.1,2.1,1.8,4.8,2.1,7.9
				c1.2,13.5,2.6,27.3,4.1,41.6c1.5,14.3,2.7,25.8,3.5,34.6c0.8,8.8,1.2,17.1,1.2,25.1c-0.2,1.3-1,2.9-2.3,4.8
				c-1.3,2-2.3,3.5-2.9,4.7c-0.1,0.5,0.1,0.8,0.5,1c0.5,0.2,1.2,0.3,2.1,0.3c1.9,0,3.2-0.7,3.9-2c6.8-13.4,13.3-26.8,19.6-40.2
				c2.3-4.7,7.9-17,16.8-36.8c6.7-14.6,12.3-26.9,17-37c0.7-1.9,1.1-3.4,1.1-4.4C137.9,89.1,137.6,88.2,137,87.3z M201.6,87.5
				c0-1.2-1.1-1.8-3.2-1.8c-2,0-3.2,0.5-3.4,1.4c-0.1,0.5,0.1,1.1,0.7,2c0.6,0.8,0.8,1.7,0.7,2.5l-9.4,95.7
				c-0.1,1.5-0.6,2.3-1.4,2.3c-0.8,0-1.4-0.5-1.8-1.4c-6.9-14.9-13.8-29.7-20.7-44.6c-7.4-16.1-14.3-31.3-20.7-45.9
				c-0.4-0.7-0.8-1.1-1.2-1.1c-0.5,0-0.9,0.4-1.3,1.1c-3.1,6.2-8.6,17.4-16.5,33.5c-8.3,17.2-15.4,32-21.1,44.3
				c-7.8,16.5-12.5,27-14.3,31.4c-0.5,0.7-0.7,1.5-0.7,2.3c0,0.8,0.4,1.2,1.1,1.2c1.3,0,2.4,0,3.2,0c2.5,0,3.7-0.7,3.7-2
				c0-1.3,0-2.6,0-3.9c4.7-10.5,9.5-20.9,14.4-31.3c4.9-10.4,9.8-20.8,14.8-31.1c6.8-14.4,11.7-24.8,14.9-31.2
				c0.7-0.4,1.2-0.5,1.4-0.5c0.6-0.1,1-0.1,1.2,0.2c3.6,6.5,7.6,15,12.1,25.3c6.6,15.1,10.4,23.7,11.4,25.7c7,14.9,13,28.6,18.1,41
				c0.4,1.1,0.5,2,0.5,2.7c0,0.7-0.2,1.5-0.5,2.5c-0.4,1-0.5,1.5-0.5,1.8c0,0.6,0.8,0.9,2.5,0.9c1.2,0,2.1,0,2.9,0
				c1.4,0,2.1-0.4,2.1-1.1c0.8-7.6,2.3-20.9,4.6-39.7c2.2-18.9,3.7-32.8,4.6-41.9C200.9,112.8,201.6,99.3,201.6,87.5z M212.1,87
				c0-0.9-0.9-1.3-2.7-1.3c-2.5,0-3.9,0.7-4.3,2.1L194.4,206c-0.4,2,0,3.5,1.2,4.5c0.6,0.5,1.7,0.5,3.3,0c0.5-0.2,1.2-0.4,2.1-0.9
				c0.1-0.5-0.1-1.3-0.5-2.4c-0.5-1.1-0.7-2.3-0.7-3.6c0-1.3,0.1-2.4,0.4-3.4l9.6-108.4c0-0.5,0.2-1.1,0.7-1.8
				C211.6,88.3,212.1,87.3,212.1,87z"/>
			<path d="M338.8,88.4c0.4-0.7,0.3-1.4-0.2-2c-0.5-0.5-1.1-0.7-1.8-0.7c-1.3,0-2.4,0-3.2,0c-1.3,0-2.2,0.4-2.7,1.1
				c0.4,1.1,0.5,2.1,0.5,3c0,1.9-0.7,4.2-2,7c-1.9,4.1-2.9,6.3-3,6.6c-3.7,8.4-7.4,16.7-11.1,25.1c-0.7,1.3-1.6,2.2-2.8,2.7
				c-1.1,0.5-2.4,0.7-3.7,0.7h-39.4c-0.7,0-1.7-1.2-2.9-3.6c-1.7-3.5-2.8-5.7-3.4-6.7c-4.3-10.4-8.5-20.8-12.7-31.1
				c-0.1-0.6,0-1.4,0.4-2.5c0.4-1.1,0.4-1.9,0.2-2.3c-1.7,0-3.4,0-5.2,0c-1,0-1.9,0-2.9,0c-1.2,0-2,0-2.5,0c-0.2,1,0.2,1.8,1.3,2.7
				c1.1,0.8,1.8,1.6,1.9,2.3c3.8,9.2,8.4,20.1,13.9,32.7c4.9,11.1,9.8,22.3,14.7,33.6c4.9,11.3,9.5,22.1,13.7,32.4
				c0.4,1.3,0.5,2.3,0.5,3c0,0.8-0.4,1.9-1.3,3.1c-0.9,1.2-1.5,2.3-1.9,3.1c-0.4,0.7-0.2,1.7,0.5,3c0.7,1.3,1.4,2,2,2
				c1.1,0,2.5-2,4.3-5.9c0.7-1.7,1.5-3.3,2.3-5c5.1-11.7,10.3-23.3,15.5-34.9c5.2-11.6,10.5-23.2,15.7-34.8
				C329.5,110.2,334.5,98.6,338.8,88.4z M310.2,140.6l-15.2,33.8c-1.1,2.6-2,4.4-2.8,5.4c-0.8,1-1.5,1.5-2.1,1.5
				c-0.6-0.4-1-0.6-1.2-0.7l-17.3-39.5c-0.4-0.8-0.4-1.7,0-2.7s1-1.4,2-1.4h34.4c0.6,0,1.2,0.4,1.8,1.3
				C310.5,139.3,310.6,140.1,310.2,140.6z M352,86.2c-1-0.4-2.1-0.5-3.4-0.5c-1.3,0-2.5,0.2-3.6,0.5c-0.5,0.1-0.8,0.5-1.1,1.1
				c-0.2,0.8-0.4,1.4-0.5,1.6c-4.4,9.9-10.1,22.7-17.1,38.4c-5.7,13-11.4,25.9-17.1,38.9c-4.6,10.5-10.4,23.2-17.3,38.2
				c-0.5,1-0.8,2.1-1.1,3.6c-0.2,1.4-0.4,2.7-0.4,3.9c0,2,0.3,3,0.9,3c0.8,0,1.8-1.4,3-4.3c7.6-17.6,16.2-36.9,25.7-57.8
				c8.8-19.3,17.6-38.6,26.4-57.8c0.4-0.7,1.4-2.1,3-4.2C351.2,88.7,352,87.2,352,86.2z"/>
			<path d="M434.6,88c0-0.6-0.4-1.1-1.1-1.6s-1.5-0.7-2.5-0.7c-1.2,0-2,0-2.5,0c-0.8,0-1.5,0.3-2,0.9c0.7,2.1,1.4,4.3,2.1,6.6v109.7
				c0,1.9-0.5,2.8-1.6,2.8c-7,0-16-0.1-27-0.4c-11-0.2-17.3-0.4-18.8-0.4c-0.6-0.5-1.2-1-1.8-1.4c-0.7,0.8-1.2,1.8-1.5,2.8
				c-0.3,1.1-0.3,2.2-0.1,3.4c0.7,0.7,2,1.1,3.7,1.1c1.1,0,1.9,0,2.5,0c9.9,0,20.3,0,31.2,0c10.9,0,16.9-0.3,17.8-0.8
				c1-0.5,1.4-1.2,1.4-1.9V88z M494.1,209.8c0.2-1.3,0.2-2.4,0-3.3c-0.2-0.9-0.8-1.9-1.6-2.9c-0.7,0.7-1.3,1.2-1.8,1.4
				c-6.9,0-12.6,0-17,0.1c-17.5,0.4-27.1,0.6-28.9,0.6c-1.1,0-1.6-1-1.6-2.8V93.2c0-1,0.3-2.2,1-3.7c0.7-1.5,1-2.5,1.2-2.9
				c-0.5-0.6-1.1-0.9-2-0.9c-1.1,0-1.9,0-2.5,0c-0.8,0-1.6,0.2-2.4,0.7c-0.8,0.5-1.2,1-1.2,1.6v120.2c0,0.8,0.7,1.6,2,2.3
				c0.1,0.1,3.4,0.2,9.8,0.2c6.4,0,12,0.1,16.8,0.2h21.9c1.2,0,2,0,2.5,0C492.1,211,493.3,210.6,494.1,209.8z"/>
			<path d="M577.6,88c0-0.6-0.4-1.1-1.1-1.6s-1.5-0.7-2.5-0.7c-1.2,0-2,0-2.5,0c-0.8,0-1.5,0.3-2,0.9c0.7,2.1,1.4,4.3,2.1,6.6v109.7
				c0,1.9-0.5,2.8-1.6,2.8c-7,0-16-0.1-27-0.4c-11-0.2-17.3-0.4-18.8-0.4c-0.6-0.5-1.2-1-1.8-1.4c-0.7,0.8-1.2,1.8-1.5,2.8
				c-0.3,1.1-0.3,2.2-0.1,3.4c0.7,0.7,2,1.1,3.7,1.1c1.1,0,1.9,0,2.5,0c9.9,0,20.3,0,31.2,0c10.9,0,16.9-0.3,17.8-0.8
				c1-0.5,1.4-1.2,1.4-1.9V88z M637,209.8c0.2-1.3,0.2-2.4,0-3.3c-0.2-0.9-0.8-1.9-1.6-2.9c-0.7,0.7-1.3,1.2-1.8,1.4
				c-6.9,0-12.6,0-17,0.1c-17.5,0.4-27.1,0.6-28.9,0.6c-1.1,0-1.6-1-1.6-2.8V93.2c0-1,0.3-2.2,1-3.7c0.7-1.5,1-2.5,1.2-2.9
				c-0.5-0.6-1.1-0.9-2-0.9c-1.1,0-1.9,0-2.5,0c-0.8,0-1.6,0.2-2.4,0.7c-0.8,0.5-1.2,1-1.2,1.6v120.2c0,0.8,0.7,1.6,2,2.3
				c0.1,0.1,3.4,0.2,9.8,0.2c6.4,0,12,0.1,16.8,0.2h22c1.2,0,2,0,2.5,0C635,211,636.3,210.6,637,209.8z"/>
		</g>
		<g class="st2">
			<path d="M19.5,35.1c0,0.5,0.3,0.8,0.8,0.8h21.3c0.3,0,0.5-0.1,0.6-0.2c0.2-0.1,0.2-0.3,0.2-0.6v-0.8c0-0.3-0.1-0.5-0.2-0.6
				c-0.2-0.1-0.4-0.2-0.6-0.2H21.9V16.8h15.9c0.3,0,0.5-0.1,0.6-0.2s0.2-0.3,0.2-0.6v-0.8c0-0.3-0.1-0.5-0.2-0.6
				c-0.1-0.1-0.3-0.2-0.6-0.2H21.9V3.5c0-0.5-0.3-0.8-0.8-0.8h-0.8c-0.5,0-0.8,0.3-0.8,0.8V35.1z"/>
			<path d="M48.6,16c0-1.6,0.3-3.1,0.8-4.4c0.6-1.4,1.3-2.6,2.3-3.6c1-1,2.2-1.8,3.5-2.4s2.8-0.9,4.5-0.9c1.6,0,3.1,0.3,4.5,0.9
				c1.4,0.6,2.5,1.4,3.5,2.4s1.7,2.2,2.3,3.6c0.5,1.4,0.8,2.9,0.8,4.4v19.1c0,0.3,0.1,0.4,0.2,0.6s0.4,0.2,0.6,0.2h0.7
				c0.3,0,0.5-0.1,0.6-0.2s0.3-0.3,0.3-0.6V15.7c0-2-0.4-3.8-1.1-5.4c-0.7-1.6-1.7-3.1-2.9-4.3c-1.2-1.2-2.7-2.1-4.3-2.8
				c-1.7-0.7-3.4-1-5.3-1c-1.2,0-2.5,0.2-3.6,0.5c-1.2,0.3-2.2,0.8-3.2,1.4c-1,0.6-1.9,1.3-2.7,2.1C49.3,7,48.5,7.9,48,8.9
				c-0.6,1-1,2.1-1.4,3.2c-0.3,1.2-0.5,2.4-0.5,3.6v19.3c0,0.2,0.1,0.4,0.2,0.6c0.1,0.2,0.3,0.2,0.6,0.2h0.8c0.2,0,0.4-0.1,0.6-0.2
				c0.2-0.1,0.2-0.3,0.2-0.6V16z"/>
			<path d="M98.9,5.2c0.3,0,0.5-0.1,0.6-0.2c0.1-0.1,0.2-0.3,0.2-0.6V3.6c0-0.3-0.1-0.4-0.2-0.6s-0.3-0.2-0.6-0.2H80.7
				c-0.3,0-0.5,0.1-0.6,0.2s-0.2,0.3-0.2,0.6v31.5c0,0.3,0.1,0.4,0.2,0.6s0.4,0.2,0.6,0.2h0.8c0.3,0,0.5-0.1,0.6-0.2
				c0.1-0.1,0.2-0.3,0.2-0.6V5.2H98.9z"/>
			<path d="M123.6,5.2c0.3,0,0.5-0.1,0.6-0.2c0.1-0.1,0.2-0.3,0.2-0.6V3.6c0-0.3-0.1-0.4-0.2-0.6s-0.3-0.2-0.6-0.2h-18.2
				c-0.3,0-0.5,0.1-0.6,0.2s-0.2,0.3-0.2,0.6v31.5c0,0.3,0.1,0.4,0.2,0.6s0.4,0.2,0.6,0.2h0.8c0.3,0,0.5-0.1,0.6-0.2
				c0.1-0.1,0.2-0.3,0.2-0.6V5.2H123.6z"/>
			<path d="M142.3,9.1c0.1,0.1,0.3,0.3,0.5,0.5c0.2,0.2,0.4,0.3,0.6,0.3c0.1,0,0.2,0,0.4-0.1c0.2-0.1,0.3-0.2,0.4-0.3
				c0.6-0.8,1.1-1.4,1.7-2c0.6-0.6,1.2-1.1,2-1.5c0.7-0.4,1.5-0.7,2.3-0.9c0.8-0.2,1.8-0.3,2.8-0.3c1.1,0,2.2,0.1,3.2,0.4
				c1,0.3,1.9,0.7,2.7,1.2c0.8,0.6,1.4,1.3,1.8,2.1c0.4,0.9,0.7,1.9,0.7,3.1c0,0.9-0.2,1.7-0.6,2.4c-0.4,0.7-0.9,1.3-1.5,1.8
				c-0.6,0.5-1.4,1-2.2,1.4c-0.9,0.4-1.8,0.8-2.7,1.2c-1.5,0.6-2.9,1.2-4.2,1.7c-1.3,0.6-2.4,1.2-3.4,1.9c-1,0.7-1.7,1.6-2.2,2.6
				c-0.5,1-0.8,2.2-0.8,3.6c0,1.3,0.2,2.5,0.7,3.6c0.5,1.1,1.1,1.9,1.9,2.7c0.8,0.7,1.8,1.3,2.9,1.7c1.1,0.4,2.3,0.6,3.6,0.6
				c0.9,0,1.7-0.1,2.5-0.3c0.8-0.2,1.6-0.5,2.4-0.8c0.8-0.4,1.4-0.8,2.1-1.3c0.6-0.5,1.2-1.1,1.8-1.8c0.1-0.1,0.1-0.2,0.2-0.3
				c0-0.1,0-0.2,0-0.3c0,0,0-0.1-0.1-0.2c-0.1-0.1-0.2-0.2-0.3-0.3c-0.1-0.1-0.2-0.2-0.4-0.3c-0.1-0.1-0.3-0.2-0.3-0.3
				c-0.2-0.1-0.3-0.2-0.4-0.1c-0.1,0-0.3,0.1-0.4,0.2c-0.9,1-1.9,1.8-3,2.4c-1.1,0.6-2.4,0.9-3.9,0.9c-1,0-1.9-0.1-2.7-0.4
				c-0.8-0.3-1.5-0.7-2.1-1.2c-0.6-0.5-1-1.2-1.4-1.9c-0.3-0.7-0.5-1.5-0.5-2.4c0-1,0.2-1.9,0.7-2.6c0.5-0.7,1.1-1.3,2-1.9
				c0.8-0.6,1.9-1.1,3-1.5c1.2-0.5,2.4-1,3.8-1.6c1.2-0.5,2.3-1,3.3-1.6c1-0.6,1.9-1.2,2.6-1.9s1.3-1.5,1.6-2.4
				c0.4-0.9,0.6-1.9,0.6-3.1c0-1.5-0.3-2.9-0.8-4c-0.6-1.2-1.3-2.1-2.3-2.9c-1-0.8-2.1-1.4-3.4-1.8c-1.3-0.4-2.7-0.6-4.2-0.6
				c-2.2,0-4.3,0.5-6.1,1.4c-1.8,0.9-3.4,2.4-4.8,4.5c-0.1,0.1-0.1,0.2-0.2,0.3s-0.1,0.2-0.1,0.3C141.9,8.8,142.1,8.9,142.3,9.1z"/>
			<path d="M188.9,35.9c0.3,0,0.5-0.1,0.6-0.2c0.2-0.1,0.2-0.3,0.2-0.6v-0.8c0-0.3-0.1-0.5-0.2-0.6c-0.1-0.2-0.4-0.2-0.6-0.2h-9.4
				V3.6c0-0.5-0.3-0.8-0.8-0.8h-0.8c-0.5,0-0.8,0.3-0.8,0.8v29.9h-9.7c-0.6,0-0.8,0.3-0.8,0.8v0.8c0,0.5,0.3,0.8,0.8,0.8H188.9z"/>
			<path d="M213.6,3.4c-0.3,0.7-0.6,1.4-0.9,2.2c-0.3,0.7-0.6,1.5-0.9,2.2H192l-1.8-4.3c-0.2-0.5-0.5-0.7-0.9-0.7
				c-0.5,0-0.9,0.1-1.2,0.2c-0.3,0.1-0.4,0.3-0.4,0.5c0,0.1,0,0.3,0.1,0.4l13,31.1c0.1,0.1,0.1,0.3,0.2,0.5c0.1,0.2,0.2,0.3,0.3,0.5
				c0.1,0.2,0.2,0.3,0.3,0.4s0.2,0.2,0.3,0.2c0.3,0,0.5-0.2,0.7-0.5L216,3.8c0,0,0.1-0.1,0.1-0.2c0-0.1,0-0.2,0-0.2
				c0-0.2-0.2-0.3-0.5-0.4c-0.3-0.1-0.7-0.2-1.2-0.2C214.1,2.8,213.8,3,213.6,3.4z M193,10.2h17.8l-8.1,19.6
				c-0.1,0.3-0.2,0.6-0.4,0.9c-0.1,0.3-0.3,0.6-0.4,0.9c0,0,0,0,0,0L193,10.2z"/>
			<path d="M244.2,32.6c0.2-0.2,0.4-0.4,0.4-0.6c0-0.1-0.1-0.3-0.2-0.5c0,0-0.1-0.1-0.2-0.2s-0.2-0.2-0.3-0.4
				c-0.1-0.1-0.2-0.2-0.3-0.3c-0.1-0.1-0.2-0.2-0.3-0.2h0h-0.1c0,0-0.1,0-0.2,0s-0.2,0.1-0.3,0.1c-1.3,1-2.7,1.8-4.1,2.3
				c-1.5,0.6-3,0.8-4.7,0.8c-1.4,0-2.7-0.2-3.9-0.5c-1.3-0.4-2.4-0.8-3.5-1.5c-1.1-0.6-2.1-1.4-3-2.3s-1.6-1.9-2.3-3
				c-0.6-1.1-1.1-2.2-1.5-3.5s-0.5-2.5-0.5-3.8c0-1.3,0.2-2.6,0.5-3.8c0.3-1.2,0.8-2.4,1.5-3.4s1.4-2,2.3-2.9
				c0.9-0.9,1.9-1.6,2.9-2.3c1.1-0.6,2.2-1.1,3.4-1.5c1.2-0.3,2.5-0.5,3.8-0.5c3.1,0,6,1,8.8,3l0.6,0.3c0.1,0.1,0.3,0.1,0.4,0.1
				c0.1,0,0.2-0.1,0.4-0.2c0.1-0.1,0.3-0.3,0.4-0.4c0.1-0.2,0.2-0.4,0.3-0.5c0.1-0.2,0.1-0.4,0.1-0.5c0-0.1,0-0.2-0.1-0.3
				s-0.2-0.2-0.3-0.3c-1.5-1.1-3.1-2-4.8-2.7c-1.7-0.6-3.6-0.9-5.7-0.9c-2.3,0-4.6,0.4-6.6,1.3c-2.1,0.9-3.9,2.1-5.4,3.6
				c-1.5,1.5-2.7,3.3-3.6,5.4c-0.9,2.1-1.3,4.3-1.3,6.6c0,1.6,0.2,3.1,0.6,4.5c0.4,1.4,1,2.8,1.7,4c0.7,1.3,1.6,2.4,2.7,3.4
				c1,1,2.2,1.9,3.4,2.7c1.3,0.7,2.6,1.3,4.1,1.7c1.4,0.4,3,0.6,4.5,0.6c2,0,3.9-0.3,5.6-1C241.1,34.7,242.7,33.8,244.2,32.6z"/>
			<path d="M268.1,12c-0.8,1.4-1.7,2.8-2.6,4.3s-1.8,2.9-2.6,4.4l-2.4,4c-1-0.9-1.9-1.8-2.9-2.8c-0.9-0.9-1.9-1.8-2.9-2.7l-2.4-2.3
				V3.6c0-0.6-0.3-0.8-0.9-0.8h-0.8c-0.6,0-0.8,0.3-0.8,0.8V35c0,0.3,0.1,0.5,0.2,0.6s0.4,0.2,0.6,0.2h0.8c0.3,0,0.5-0.1,0.6-0.2
				s0.2-0.4,0.2-0.6V20.5l15.4,14.7c0.2,0.2,0.4,0.3,0.6,0.4c0.2,0.1,0.4,0.2,0.6,0.2c0.2,0,0.4,0.1,0.6,0.1c0.2,0,0.5,0,0.8,0
				s0.6,0,0.8-0.1c0.2-0.1,0.4-0.3,0.4-0.5c0-0.1-0.1-0.2-0.2-0.4l-8.9-8.4l13.5-22.6c0.1-0.2,0.1-0.4,0.1-0.6
				c0-0.5-0.4-0.7-1.2-0.7c-0.2,0-0.4,0-0.7,0.1c-0.3,0.1-0.4,0.1-0.5,0.2c-0.9,1.5-1.8,3-2.7,4.5C269.9,9,269,10.5,268.1,12z"/>
			<path d="M294.8,35.4c1.8-4.4,3.6-8.7,5.3-13.1s3.5-8.7,5.3-13.1c0.2-0.4,0.3-0.8,0.5-1.2c0.2-0.4,0.3-0.8,0.5-1.2l1,2.3
				c0.9,2.2,1.8,4.4,2.7,6.6c0.9,2.2,1.8,4.4,2.7,6.6l0.9,2.1l4.3,10.9c0.1,0.4,0.3,0.6,0.6,0.6c0.1,0,0.2,0,0.3-0.1
				c0.1,0,0.2-0.1,0.3-0.1l0.8-0.1c0.1,0,0.3,0,0.3-0.1c0.1,0,0.1-0.1,0.1-0.2c0-0.1,0-0.2,0-0.2c0-0.1,0-0.2-0.1-0.2l-4.2-10.6
				l6.1-15.1c0.2-0.4,0.3-0.8,0.5-1.2s0.3-0.8,0.5-1.2c0.2,0.4,0.4,0.8,0.5,1.2c0.2,0.4,0.3,0.8,0.5,1.3l10.6,26.1
				c0.2,0.5,0.5,0.7,0.9,0.7h0.8c0.3,0,0.5-0.1,0.6-0.2c0.1-0.1,0.2-0.3,0.2-0.4c0-0.2,0-0.4-0.1-0.5L323.8,2.2
				c-0.1-0.1-0.1-0.2-0.2-0.3c-0.1-0.1-0.2-0.1-0.4-0.1c-0.1,0-0.2,0.1-0.3,0.2c-0.1,0.1-0.2,0.2-0.3,0.4c-0.1,0.2-0.2,0.3-0.3,0.5
				S322,3.3,322,3.5l-7.2,17.7l-7.7-18.9c0-0.1-0.1-0.2-0.2-0.3s-0.2-0.1-0.4-0.1c-0.1,0-0.2,0.1-0.4,0.2c-0.1,0.1-0.2,0.3-0.3,0.4
				c-0.1,0.2-0.2,0.4-0.3,0.6c-0.1,0.2-0.2,0.4-0.2,0.6l-13,31.5c0,0,0,0.1,0,0.1c0,0,0,0.1,0,0.1c0,0.1,0.1,0.2,0.2,0.3
				c0.1,0.1,0.2,0.1,0.4,0.2c0.2,0.1,0.3,0.1,0.5,0.1c0.2,0,0.4,0,0.6,0C294.3,35.9,294.6,35.7,294.8,35.4z"/>
			<path d="M364.3,35.9c0.6,0,0.8-0.3,0.8-0.8v-0.8c0-0.3-0.1-0.5-0.2-0.6s-0.4-0.2-0.6-0.2h-19.9V16.8h16.1c0.3,0,0.5-0.1,0.6-0.2
				c0.2-0.1,0.2-0.3,0.2-0.6v-0.8c0-0.3-0.1-0.5-0.2-0.6s-0.4-0.2-0.6-0.2h-16.1V5.2h20.2c0.6,0,0.8-0.3,0.8-0.8V3.6
				c0-0.5-0.3-0.8-0.8-0.8h-22c-0.3,0-0.4,0.1-0.5,0.2C342,3.1,342,3.3,342,3.5v31.5c0,0.3,0.1,0.6,0.3,0.7c0.2,0.1,0.4,0.1,0.6,0.1
				H364.3z"/>
			<path d="M393.9,27.8c0-1.5-0.4-2.8-1.1-3.9c-0.7-1.1-1.7-2-2.8-2.8c0.8-0.3,1.6-0.7,2.3-1.3c0.7-0.6,1.3-1.2,1.9-2
				c0.5-0.8,0.9-1.6,1.2-2.6c0.3-1,0.5-2,0.5-3.2c0-1.3-0.2-2.6-0.7-3.7c-0.5-1.1-1.1-2.1-1.9-2.9c-0.8-0.8-1.8-1.5-2.9-1.9
				c-1.1-0.5-2.2-0.7-3.5-0.7h-15.2c-0.2,0-0.4,0.1-0.5,0.2c-0.1,0.1-0.2,0.3-0.2,0.4v31.7c0,0.3,0.1,0.6,0.2,0.7
				c0.2,0.1,0.3,0.2,0.5,0.2h13.5c1.2,0,2.3-0.2,3.4-0.6c1.1-0.4,2-0.9,2.8-1.7s1.4-1.6,1.9-2.6C393.6,30.1,393.9,29,393.9,27.8z
				 M391.4,27.7c0,1-0.2,1.8-0.6,2.5c-0.4,0.7-0.9,1.3-1.6,1.8c-0.7,0.5-1.4,0.8-2.3,1.1c-0.9,0.2-1.9,0.3-2.9,0.3h-10.7V21.9h11.7
				c0.9,0,1.7,0.1,2.5,0.4c0.8,0.3,1.4,0.7,2,1.2c0.6,0.5,1,1.1,1.3,1.9C391.3,26.1,391.4,26.9,391.4,27.7z M373.4,19.5V5.2h13.5
				c0,0,0,0,0,0c0.8,0,1.7,0.2,2.5,0.5c0.8,0.3,1.5,0.8,2.1,1.3s1.1,1.3,1.4,2.1c0.4,0.8,0.5,1.8,0.5,2.9s-0.2,2.1-0.6,3
				c-0.4,0.9-0.9,1.7-1.5,2.4c-0.6,0.7-1.3,1.2-2.1,1.5c-0.8,0.4-1.6,0.6-2.5,0.6H373.4z"/>
			<path d="M415.4,35c0,0.3,0.1,0.5,0.2,0.6c0.1,0.1,0.3,0.2,0.5,0.2h10.8c1.5,0,3-0.2,4.4-0.6c1.4-0.4,2.7-1,3.9-1.7
				s2.3-1.6,3.3-2.6c1-1,1.9-2.1,2.6-3.3c0.7-1.2,1.3-2.5,1.7-4s0.6-2.9,0.6-4.4c0-1.5-0.2-3-0.6-4.4c-0.4-1.4-1-2.7-1.7-3.9
				c-0.7-1.2-1.6-2.3-2.6-3.3c-1-1-2.1-1.9-3.4-2.6c-1.2-0.7-2.6-1.3-4-1.7s-2.9-0.6-4.4-0.6h-10.5c-0.2,0-0.4,0.1-0.6,0.2
				s-0.3,0.3-0.3,0.5V35z M426.7,5.2c1.3,0,2.6,0.2,3.9,0.5c1.2,0.3,2.4,0.8,3.4,1.4c1.1,0.6,2,1.4,2.9,2.2c0.9,0.9,1.6,1.8,2.2,2.9
				c0.6,1.1,1.1,2.2,1.4,3.4c0.3,1.2,0.5,2.5,0.5,3.8c0,2-0.4,3.9-1.1,5.6c-0.8,1.7-1.8,3.2-3.1,4.5c-1.3,1.2-2.8,2.2-4.5,2.9
				c-1.7,0.7-3.6,1.1-5.5,1.1h-8.9V5.2H426.7z"/>
			<path d="M472,35.9c0.6,0,0.8-0.3,0.8-0.8v-0.8c0-0.3-0.1-0.5-0.2-0.6s-0.4-0.2-0.6-0.2h-19.9V16.8h16.1c0.3,0,0.5-0.1,0.6-0.2
				c0.2-0.1,0.2-0.3,0.2-0.6v-0.8c0-0.3-0.1-0.5-0.2-0.6s-0.4-0.2-0.6-0.2h-16.1V5.2h20.2c0.6,0,0.8-0.3,0.8-0.8V3.6
				c0-0.5-0.3-0.8-0.8-0.8h-22c-0.3,0-0.4,0.1-0.5,0.2c-0.1,0.1-0.2,0.3-0.2,0.6v31.5c0,0.3,0.1,0.6,0.3,0.7
				c0.2,0.1,0.4,0.1,0.6,0.1H472z"/>
			<path d="M478.6,35.4c1.8-4.4,3.5-8.7,5.3-13c1.8-4.3,3.5-8.6,5.3-13c0.2-0.4,0.4-0.9,0.5-1.3c0.2-0.5,0.4-0.9,0.6-1.3L502,35.3
				c0.1,0.4,0.3,0.6,0.6,0.6c0.1,0,0.2,0,0.3-0.1c0.1,0,0.2-0.1,0.3-0.1l0.8-0.1c0.3,0,0.4-0.2,0.4-0.4c0-0.1,0-0.2-0.1-0.3
				c0-0.1-0.1-0.2-0.1-0.2L491.4,3.4c-0.1-0.3-0.2-0.5-0.4-0.7c-0.1-0.2-0.2-0.4-0.4-0.7c0,0,0,0,0,0c0,0,0,0,0,0
				c-0.1,0-0.1,0-0.2-0.1c-0.1-0.1-0.2-0.1-0.3-0.1c-0.1,0-0.2,0-0.3,0.1c-0.1,0.1-0.2,0.2-0.2,0.3c-2.3,5.5-4.5,10.9-6.7,16.3
				c-2.2,5.4-4.5,10.9-6.7,16.3l0,0.1c0,0,0,0.1,0,0.1s0,0.1,0,0.1c0,0.2,0.2,0.4,0.5,0.5s0.7,0.2,1.2,0.2c0.2,0,0.4-0.1,0.5-0.2
				C478.4,35.7,478.5,35.5,478.6,35.4z"/>
			<path d="M531.9,35.9c0.6,0,0.8-0.3,0.8-0.8v-0.8c0-0.3-0.1-0.5-0.2-0.6s-0.4-0.2-0.6-0.2H512V16.8h16.1c0.3,0,0.5-0.1,0.6-0.2
				c0.2-0.1,0.2-0.3,0.2-0.6v-0.8c0-0.3-0.1-0.5-0.2-0.6s-0.4-0.2-0.6-0.2H512V5.2h20.2c0.6,0,0.8-0.3,0.8-0.8V3.6
				c0-0.5-0.3-0.8-0.8-0.8h-22c-0.3,0-0.4,0.1-0.5,0.2c-0.1,0.1-0.2,0.3-0.2,0.6v31.5c0,0.3,0.1,0.6,0.3,0.7
				c0.2,0.1,0.4,0.1,0.6,0.1H531.9z"/>
			<path d="M557.5,5.2c0.3,0,0.5-0.1,0.6-0.2c0.1-0.1,0.2-0.3,0.2-0.6V3.6c0-0.3-0.1-0.4-0.2-0.6c-0.1-0.1-0.4-0.2-0.6-0.2h-18.2
				c-0.3,0-0.5,0.1-0.6,0.2c-0.1,0.1-0.2,0.3-0.2,0.6v31.5c0,0.3,0.1,0.4,0.2,0.6c0.1,0.1,0.4,0.2,0.6,0.2h0.8
				c0.3,0,0.5-0.1,0.6-0.2c0.1-0.1,0.2-0.3,0.2-0.6V5.2H557.5z"/>
			<path d="M560.2,19.3c0,1.6,0.2,3.1,0.6,4.5c0.4,1.4,1,2.8,1.7,4.1c0.7,1.3,1.6,2.4,2.7,3.4c1,1,2.2,1.9,3.4,2.7
				c1.3,0.7,2.6,1.3,4.1,1.7c1.5,0.4,3,0.6,4.5,0.6s3.1-0.2,4.5-0.6c1.4-0.4,2.8-1,4.1-1.7c1.3-0.7,2.4-1.6,3.4-2.7
				c1-1,1.9-2.2,2.7-3.4c0.7-1.3,1.3-2.6,1.7-4.1c0.4-1.5,0.6-3,0.6-4.5c0-1.6-0.2-3.1-0.6-4.5c-0.4-1.4-1-2.8-1.7-4
				s-1.6-2.4-2.7-3.4c-1-1-2.2-1.9-3.4-2.7c-1.3-0.7-2.6-1.3-4.1-1.7c-1.5-0.4-3-0.6-4.5-0.6s-3.1,0.2-4.5,0.6
				c-1.5,0.4-2.8,1-4.1,1.7c-1.3,0.7-2.4,1.6-3.4,2.7c-1,1-1.9,2.2-2.7,3.4s-1.3,2.6-1.7,4C560.4,16.2,560.2,17.7,560.2,19.3z
				 M562.7,19.3c0-2,0.4-3.9,1.1-5.6c0.8-1.8,1.8-3.3,3.1-4.6c1.3-1.3,2.9-2.3,4.6-3.1c1.8-0.8,3.6-1.1,5.6-1.1
				c1.3,0,2.6,0.2,3.8,0.5c1.2,0.3,2.4,0.8,3.5,1.5s2,1.4,2.9,2.3c0.9,0.9,1.6,1.9,2.3,2.9c0.6,1.1,1.1,2.2,1.5,3.4
				c0.3,1.2,0.5,2.5,0.5,3.8c0,2-0.4,3.9-1.1,5.6c-0.8,1.8-1.8,3.3-3.1,4.6s-2.9,2.4-4.6,3.1c-1.8,0.8-3.6,1.1-5.6,1.1
				c-1.3,0-2.6-0.2-3.8-0.5c-1.2-0.3-2.4-0.8-3.5-1.5c-1.1-0.6-2.1-1.4-2.9-2.3c-0.9-0.9-1.6-1.9-2.3-2.9c-0.6-1.1-1.1-2.2-1.5-3.5
				C562.9,21.9,562.7,20.6,562.7,19.3z"/>
			<path d="M608.7,35.9c2,0,3.8-0.4,5.4-1.1c1.6-0.7,3-1.7,4.1-2.9c1.2-1.2,2-2.6,2.7-4.2c0.6-1.6,0.9-3.2,0.9-4.9
				c0-1.6-0.3-3.2-0.9-4.8c-0.6-1.6-1.5-3-2.6-4.2c-1.1-1.2-2.5-2.2-4.1-3c-1.6-0.8-3.4-1.1-5.4-1.1h-6.3V3.6c0-0.5-0.3-0.8-0.8-0.8
				h-0.8c-0.5,0-0.8,0.3-0.8,0.8v31.5c0,0.5,0.2,0.7,0.6,0.8l0.1,0.1H608.7z M602.4,12.2h6.3c1.6,0,3.1,0.3,4.4,0.9
				c1.3,0.6,2.4,1.4,3.4,2.4c0.9,1,1.6,2.1,2.2,3.4c0.5,1.3,0.8,2.6,0.8,3.9c0,1.3-0.3,2.6-0.8,3.9c-0.5,1.3-1.2,2.4-2.2,3.4
				c-0.9,1-2.1,1.8-3.4,2.4c-1.3,0.6-2.9,0.9-4.6,0.9h-6.1V12.2z"/>
			<path d="M649.9,35.9c0.6,0,0.8-0.3,0.8-0.8v-0.8c0-0.3-0.1-0.5-0.2-0.6s-0.4-0.2-0.6-0.2H630V16.8h16.1c0.3,0,0.5-0.1,0.6-0.2
				c0.2-0.1,0.2-0.3,0.2-0.6v-0.8c0-0.3-0.1-0.5-0.2-0.6s-0.4-0.2-0.6-0.2H630V5.2h20.2c0.6,0,0.8-0.3,0.8-0.8V3.6
				c0-0.5-0.3-0.8-0.8-0.8h-22c-0.3,0-0.4,0.1-0.5,0.2c-0.1,0.1-0.2,0.3-0.2,0.6v31.5c0,0.3,0.1,0.6,0.3,0.7
				c0.2,0.1,0.4,0.1,0.6,0.1H649.9z"/>
			<path d="M680.9,23.4c0-1-0.1-2.1-0.4-3.1c-0.3-1-0.6-2-1.1-2.9c-0.5-0.9-1.1-1.8-1.8-2.5c-0.7-0.8-1.5-1.5-2.5-2l4.3-9.1
				c0,0,0-0.1,0-0.2c0-0.1,0-0.2,0-0.2c0-0.2-0.1-0.3-0.2-0.4c-0.1-0.1-0.3-0.2-0.5-0.2h-1.3c-0.3,0-0.5,0.2-0.6,0.5l-4,8.5
				c-1.4-0.6-3-0.8-4.7-0.8H659V3.6c0-0.6-0.3-0.8-0.9-0.8h-0.8c-0.6,0-0.8,0.3-0.8,0.8V35c0,0.3,0.1,0.5,0.2,0.6
				c0.2,0.2,0.3,0.3,0.5,0.3h10.9c2,0,3.7-0.4,5.3-1s2.9-1.6,4-2.8c1.1-1.2,2-2.5,2.5-4C680.6,26.5,680.9,25,680.9,23.4z
				 M668.1,13.5c1.6,0,3.1,0.3,4.3,0.8c1.3,0.6,2.3,1.3,3.2,2.2s1.5,2,2,3.2c0.5,1.2,0.7,2.4,0.7,3.7c0,1.3-0.2,2.5-0.7,3.7
				c-0.5,1.2-1.1,2.3-2,3.2c-0.9,0.9-1.9,1.7-3.2,2.3c-1.3,0.6-2.7,0.8-4.3,0.8H659V13.5H668.1z"/>
		</g>
	</g>
</g>
</svg>
