<?xml version="1.0" encoding="utf-8"?>
<!-- Generator: Adobe Illustrator 23.0.1, SVG Export Plug-In . SVG Version: 6.00 Build 0)  -->
<svg version="1.1"
	 id="svg2707" inkscape:version="0.92.4 (5da689c313, 2019-01-14)" sodipodi:docname="LOGOc.svg" xmlns:cc="http://creativecommons.org/ns#" xmlns:dc="http://purl.org/dc/elements/1.1/" xmlns:inkscape="http://www.inkscape.org/namespaces/inkscape" xmlns:rdf="http://www.w3.org/1999/02/22-rdf-syntax-ns#" xmlns:sodipodi="http://sodipodi.sourceforge.net/DTD/sodipodi-0.dtd" xmlns:svg="http://www.w3.org/2000/svg"
	 xmlns="http://www.w3.org/2000/svg" xmlns:xlink="http://www.w3.org/1999/xlink" x="0px" y="0px" viewBox="0 0 2834.6 2834.6"
	 style="enable-background:new 0 0 2834.6 2834.6;" xml:space="preserve">
<style type="text/css">
	.st0{fill:#B0D2CA;}
	.st1{fill:#40878C;}
	.st2{enable-background:new    ;}
	.st3{fill:#0E3A6B;}
</style>
<sodipodi:namedview  bordercolor="#666666" borderopacity="1.0" id="base" inkscape:current-layer="layer1" inkscape:cx="1977.9597" inkscape:cy="1987.8965" inkscape:document-units="mm" inkscape:pageopacity="0.0" inkscape:pageshadow="2" inkscape:window-height="1017" inkscape:window-maximized="1" inkscape:window-width="1920" inkscape:window-x="-8" inkscape:window-y="-8" inkscape:zoom="0.2" pagecolor="#ffffff" showgrid="false">
	</sodipodi:namedview>
<g id="layer1" transform="translate(0,703)" inkscape:groupmode="layer" inkscape:label="Layer 1">
	<g id="g6592" transform="matrix(1.5936498,0,0,-1.5936498,-198.58689,544.63386)">
		<g id="g886" transform="matrix(3.7493586,0,0,3.7493586,418.54475,749.77753)">
			<path id="path888" inkscape:connector-curvature="0" class="st0" d="M143.8-16.2c-0.1,2-0.3,4-0.5,6c2.8-2.1,5.6-4.3,8.7-6.1
				C149.3-16.2,146.6-16.2,143.8-16.2 M135.2-4.6c0.4-0.3,0.9-0.6,1.6-1.1c1-0.6,1.9-1.2,2.8-1.8c-0.1-2.9,0.3-5.9,0.7-8.8
				c-1.3,0-2.6,0-3.9-0.1C136.6-12.3,136.3-8.5,135.2-4.6 M127.8-16.8c0.7,2.7,1,5.6,0.6,8.4c1.2,1.3,2.5,2.7,3.7,3.4
				c0,0,0-0.1,0-0.1c0.6-3.7,1-7.5,1-11.3C131.3-16.6,129.6-16.7,127.8-16.8 M125-17c-2.2-0.2-4.4-0.4-6.6-0.7
				c2.4,2.1,4.8,4.2,7.2,6.3C125.5-13.3,125.3-15.1,125-17 M165.2-16.9c0.1,1.1-0.3,2.2-1.5,3c-6.3,4.3-13.3,7-19.3,11.9
				c-2.8,2.2-5.9,6.6-9.9,6.8c-3.4,0.1-6.2-3.1-8.5-5.1c-7-5.9-13.8-12.2-20.6-18.4c-3.8-3.5,1.5-7.7,4.6-6.3
				c0.5-0.4,1.1-0.7,1.8-0.8c17.8-1.4,36.1,0.5,53.7,3.1C168.9-22.2,168-17.6,165.2-16.9"/>
		</g>
		<g id="g890" transform="matrix(3.7493586,0,0,3.7493586,476.96312,765.61257)">
			<path id="path892" inkscape:connector-curvature="0" class="st1" d="M172.4-8.4c0,1.3-0.1,2.6-0.2,3.9c1.9-0.1,3.9-0.3,5.8-0.4
				C176.1-6,174.2-7.2,172.4-8.4 M166.8-4.3C166.8-4.2,166.8-4.2,166.8-4.3c0.9,0,1.9-0.1,2.9-0.1c-0.3-2.1-0.3-4.2-0.2-6.4
				c-0.8-0.7-1.6-1.5-2.4-2.2C166.9-10.1,166.9-7.2,166.8-4.3 M157.9-11.1c0.1,2,0.1,3.9,0,5.9c-0.1,1.5-2.3,1.5-2.3,0
				c0-1.4-0.1-2.8,0-4.3c-1.5,1-3,2-4.4,2.9c-1.6,1.1-3.3,2.2-4.9,3.2c5.9-0.1,11.8-0.3,17.6-0.6c-1-4.1-0.8-8.1,0.1-12.2
				C162.2-14.3,160.1-12.6,157.9-11.1 M192.5-0.8c-0.1,0-0.3,0-0.4-0.1c-0.4,0.7-1.1,1.3-2.2,1.5c-18.2,2.7-36.1,3.9-54.3,1.4
				c-1,0.4-2,0.9-3,1.3c-2.1,0.8-4.1-2.3-2.6-3.9c0-1.2,0.8-2.5,2.3-2.5c0.3,0,0.7,0,1,0c4.3-3.3,8.7-6.4,13.1-9.5
				c5.3-3.7,10.3-9.3,16.5-11.4c1.5-0.5,2.9,0.3,3.5,1.5c4.5,2.8,8.7,6,13.2,8.7c4.7,2.8,9.8,4.7,14.6,7.3
				C196.7-5.1,195.6-0.6,192.5-0.8"/>
		</g>
		<g id="g894" transform="matrix(3.7493586,0,0,3.7493586,557.01718,722.36783)">
			<path id="path896" inkscape:connector-curvature="0" class="st0" d="M211.6-29.6c0.8,1.8,1.6,3.7,2.3,5.6c1.6-3.2,3.1-6.4,5-9.4
				C216.4-32.1,214-30.8,211.6-29.6 M209.2-15.3c0.2-0.5,0.5-1,1-1.7c0.6-0.9,1.1-1.9,1.6-2.9c-1.4-2.6-2.4-5.4-3.4-8.2
				c-1.2,0.6-2.4,1.2-3.5,1.7C206.9-22.9,208.4-19.3,209.2-15.3 M197.1-22.9c1.9,2.1,3.5,4.5,4.3,7.2c1.7,0.6,3.4,1.2,4.8,1.3
				c0,0-0.1-0.1-0.1-0.1c-1.1-3.6-2.5-7.2-4.3-10.5C200.3-24.3,198.7-23.5,197.1-22.9 M194.4-21.8c-2.1,0.8-4.1,1.7-6.2,2.4
				c3.1,0.8,6.2,1.5,9.3,2.3C196.6-18.7,195.6-20.3,194.4-21.8 M230.3-40c0.6,0.9,0.7,2.1,0,3.4c-3.7,6.7-8.7,12.2-11.8,19.3
				c-1.4,3.2-2.2,8.6-5.8,10.5c-3,1.6-6.9,0.1-9.9-0.6c-9-2.1-17.8-4.6-26.7-7c-4.9-1.4-2.2-7.5,1.3-7.7c0.3-0.6,0.7-1.1,1.3-1.5
				c15.2-9.3,32.4-16,49.2-21.6C231.2-46.3,232.5-41.8,230.3-40"/>
		</g>
		<g id="g898" transform="matrix(3.7493586,0,0,3.7493586,616.25742,709.95558)">
			<path id="path900" inkscape:connector-curvature="0" class="st1" d="M240.6-35.7c0.6,1.1,1.1,2.3,1.6,3.5c1.7-1,3.3-2,5-3
				C244.9-35.2,242.7-35.4,240.6-35.7 M237.5-29.4C237.5-29.4,237.5-29.3,237.5-29.4c0.8-0.4,1.7-0.9,2.5-1.4
				c-1.2-1.8-2.1-3.7-3-5.6c-1.1-0.3-2.1-0.6-3.2-0.9C235-34.7,236.3-32.1,237.5-29.4 M226.5-31.4c0.9,1.7,1.8,3.4,2.7,5.2
				c0.6,1.4-1.4,2.4-2.1,1.1c-0.7-1.3-1.3-2.5-2-3.8c-0.9,1.6-1.8,3.1-2.6,4.6c-0.9,1.7-1.9,3.4-3,5.1c5.2-2.8,10.3-5.6,15.4-8.6
				c-2.7-3.2-4.4-6.9-5.5-10.9C228.8-36.3,227.7-33.8,226.5-31.4 M262-38c-0.1,0.1-0.3,0.1-0.4,0.2c0,0.8-0.4,1.6-1.3,2.3
				c-15,10.6-30.4,19.9-47.7,25.9c-0.7,0.8-1.4,1.7-2.1,2.5c-1.5,1.7-4.7-0.2-4.1-2.3c-0.5-1.1-0.4-2.6,0.9-3.3
				c0.3-0.2,0.6-0.3,0.9-0.5c2.3-4.9,4.8-9.7,7.3-14.4c3-5.7,5-13,9.5-17.6c1.1-1.1,2.7-1,3.8-0.2c5.3,0.4,10.4,1.4,15.7,1.7
				c5.5,0.3,10.9-0.2,16.3-0.1C263.7-43.7,264.8-39.2,262-38"/>
		</g>
		<g id="g902" transform="matrix(3.7493586,0,0,3.7493586,657.93079,640.18715)">
			<path id="path904" inkscape:connector-curvature="0" class="st0" d="M261-69.8c1.6,1.3,3.1,2.6,4.6,3.9
				c-0.1-3.6-0.2-7.1,0.2-10.6C264.2-74.2,262.6-72,261-69.8 M265.3-56c0-0.5,0-1.1,0.1-1.9c0.1-1.1,0.1-2.2,0.1-3.3
				c-2.4-1.7-4.6-3.7-6.7-5.7c-0.8,1-1.6,2.1-2.4,3.1C259.9-61.7,262.8-59.2,265.3-56 M251.1-57.2c2.6,1,5.1,2.4,7.1,4.5
				c1.8-0.2,3.6-0.4,4.9-1c0,0-0.1,0-0.1-0.1c-2.7-2.7-5.5-5.2-8.6-7.4C253.3-59.9,252.2-58.6,251.1-57.2 M249.2-55.1
				c-1.5,1.7-2.9,3.4-4.4,5c3.1-0.7,6.2-1.5,9.3-2.1C252.6-53.3,250.9-54.2,249.2-55.1 M273-87.6c0.9,0.5,1.6,1.6,1.6,3
				c-0.3,7.6-2.2,14.8-1.7,22.6c0.2,3.5,1.9,8.7-0.4,12c-1.9,2.8-6.1,3.2-9.1,3.9c-8.9,2.2-18,4-27,5.9c-5,1-5.3-5.7-2.4-7.5
				c0-0.7,0.1-1.3,0.5-1.9c9.3-15.2,21.6-28.9,34-41.6C270.8-93.6,274.1-90.2,273-87.6"/>
		</g>
		<g id="g906" transform="matrix(3.7493586,0,0,3.7493586,705.07897,602.23314)">
			<path id="path908" inkscape:connector-curvature="0" class="st1" d="M284-88.4c1,0.7,2,1.6,3,2.4c1-1.7,2.1-3.3,3.1-5
				C288.2-89.9,286.1-89.1,284-88.4 M284.1-81.4C284.1-81.4,284.2-81.3,284.1-81.4c0.6-0.7,1.1-1.6,1.6-2.4c-1.9-1-3.6-2.3-5.2-3.6
				c-1.1,0.3-2.1,0.5-3.2,0.6C279.5-84.9,281.8-83.2,284.1-81.4 M273.4-78.2c1.6,1.1,3.2,2.2,4.8,3.4c1.2,0.9-0.1,2.7-1.4,1.9
				c-1.2-0.8-2.3-1.6-3.5-2.5c-0.1,1.8-0.2,3.6-0.2,5.2c-0.1,2-0.2,3.9-0.3,5.8c3.4-4.8,6.7-9.7,9.9-14.6c-3.9-1.6-7-4.2-9.8-7.2
				C273.3-83.6,273.4-80.9,273.4-78.2 M302-100.2c-0.1,0.1-0.2,0.2-0.3,0.3c0.4,0.7,0.4,1.6-0.1,2.7c-8.5,16.3-18.1,31.5-30.8,44.8
				c-0.2,1.1-0.5,2.1-0.8,3.2c-0.6,2.2-4.2,2-4.7-0.2c-1-0.7-1.5-2.2-0.7-3.3c0.2-0.3,0.4-0.5,0.6-0.8c-0.1-5.4-0.1-10.8,0-16.2
				c0.1-6.4-1.4-13.8,0.5-20c0.5-1.5,1.9-2.1,3.3-2c4.9-2,9.9-3.5,14.8-5.6c5-2.2,9.6-5.2,14.5-7.5C301-106.1,304-102.6,302-100.2"
				/>
		</g>
		<g id="g910" transform="matrix(3.7493586,0,0,3.7493586,710.53654,521.14989)">
			<path id="path912" inkscape:connector-curvature="0" class="st0" d="M286.7-128.1c2,0.4,3.9,0.9,5.9,1.4
				c-1.7-3.1-3.4-6.2-4.7-9.5C287.6-133.4,287.2-130.8,286.7-128.1 M296.8-117.7c-0.2-0.5-0.5-1-0.8-1.8c-0.4-1-0.9-2-1.4-3
				c-2.9-0.4-5.8-1.2-8.6-2.1c-0.2,1.3-0.4,2.6-0.7,3.9C289.4-120.4,293.2-119.5,296.8-117.7 M283.6-112.3c2.8-0.3,5.7-0.2,8.4,0.7
				c1.5-1,3-2,3.9-3.1c0,0-0.1,0-0.1,0c-3.6-1.2-7.3-2.2-11-2.7C284.4-115.8,284-114.1,283.6-112.3 M282.9-109.6
				c-0.5,2.2-1.1,4.3-1.7,6.4c2.5-2.1,4.9-4.1,7.4-6.1C286.7-109.5,284.9-109.6,282.9-109.6 M289.4-149.3c1.1,0.1,2.1,0.7,2.8,2
				c3.2,6.9,4.8,14.2,8.7,20.9c1.8,3.1,5.6,6.9,5.1,10.9c-0.4,3.4-4,5.6-6.3,7.6c-7,6-14.2,11.7-21.4,17.5c-4,3.2-7.3-2.7-5.5-5.6
				c-0.3-0.6-0.5-1.2-0.5-1.9c1.4-17.8,6.1-35.6,11.4-52.6C284.7-153.8,289.1-152.2,289.4-149.3"/>
		</g>
		<g id="g914" transform="matrix(3.7493586,0,0,3.7493586,735.31529,465.92783)">
			<path id="path916" inkscape:connector-curvature="0" class="st1" d="M298.8-155.1c1.3,0.2,2.5,0.5,3.8,0.8
				c0.2-1.9,0.4-3.9,0.5-5.8C301.8-158.3,300.4-156.6,298.8-155.1 M302.1-148.9C302.1-148.9,302.1-148.9,302.1-148.9
				c0.2-0.9,0.2-1.9,0.3-2.8c-2.1-0.1-4.2-0.4-6.3-0.8c-0.8,0.7-1.7,1.4-2.6,2C296.4-149.9,299.2-149.5,302.1-148.9 M294-141.2
				c1.9,0.2,3.9,0.5,5.8,0.9c1.5,0.3,1.1,2.5-0.4,2.3c-1.4-0.2-2.8-0.4-4.2-0.6c0.8,1.7,1.5,3.3,2.2,4.8c0.8,1.8,1.6,3.6,2.3,5.4
				c0.8-5.8,1.5-11.7,2.1-17.5c-4.2,0.3-8.2-0.5-12-2C291.5-145.9,292.8-143.6,294-141.2 M309.5-173.8c0,0.1-0.1,0.3-0.1,0.4
				c0.7,0.5,1.1,1.3,1.1,2.4c-0.2,18.4-1.8,36.3-7.1,53.9c0.3,1.1,0.5,2.1,0.8,3.2c0.5,2.2-2.9,3.7-4.2,2c-1.2-0.2-2.3-1.2-2.1-2.6
				c0-0.3,0.1-0.6,0.1-1c-2.6-4.7-5-9.6-7.4-14.4c-2.8-5.8-7.6-11.7-8.6-18.1c-0.3-1.6,0.7-2.8,2-3.2c3.4-4,7.3-7.6,10.6-11.7
				c3.5-4.2,6.2-8.9,9.5-13.3C305.9-178.6,310.2-176.8,309.5-173.8"/>
		</g>
		<g id="g918" transform="matrix(3.7493586,0,0,3.7493586,703.36664,391.20425)">
			<path id="path920" inkscape:connector-curvature="0" class="st0" d="M283.2-191.7c1.9-0.5,3.9-1,5.9-1.4c-2.9-2-5.8-4-8.5-6.4
				C281.5-196.8,282.4-194.3,283.2-191.7 M296.9-187c-0.4-0.3-0.9-0.7-1.5-1.2c-0.8-0.7-1.7-1.4-2.6-2.1c-2.8,1-5.7,1.5-8.6,2.1
				c0.4,1.3,0.8,2.5,1.1,3.8C289.1-186,292.9-186.9,296.9-187 M287.6-176.2c2.4-1.5,5-2.7,7.8-3.1c0.9-1.6,1.8-3.2,2.1-4.5
				c0,0-0.1,0-0.1,0c-3.7,0.6-7.5,1.4-11.1,2.6C286.7-179.6,287.2-177.9,287.6-176.2 M288.2-173.5c0.5,2.2,1,4.3,1.4,6.5
				c1.3-2.9,2.5-5.9,3.8-8.8C291.7-175.1,289.9-174.4,288.2-173.5 M275.9-211.8c1-0.4,2.2-0.4,3.4,0.5c6,4.7,10.7,10.5,17.2,14.7
				c3,1.9,8.1,3.6,9.5,7.4c1.1,3.2-1,6.8-2.2,9.7c-3.5,8.5-7.3,16.9-11.1,25.3c-2.1,4.7-7.7,1-7.4-2.5c-0.5-0.4-1-0.9-1.3-1.5
				c-6.8-16.5-10.7-34.5-13.7-52C269.7-213.6,274.4-214.3,275.9-211.8"/>
		</g>
		<g id="g922" transform="matrix(3.7493586,0,0,3.7493586,700.37428,330.75146)">
			<path id="path924" inkscape:connector-curvature="0" class="st1" d="M281.7-221.2c1.2-0.4,2.5-0.7,3.7-1
				c-0.7-1.8-1.4-3.6-2.2-5.4C282.9-225.5,282.4-223.3,281.7-221.2 M287.5-217.2C287.5-217.2,287.5-217.2,287.5-217.2
				c-0.3-0.9-0.7-1.8-1-2.7c-1.9,0.9-3.9,1.6-6,2.1c-0.4,1-0.9,2-1.4,3C281.9-215.5,284.6-216.4,287.5-217.2 M283.7-206.6
				c1.8-0.7,3.7-1.3,5.6-1.8c1.4-0.4,2.1,1.7,0.7,2.2c-1.3,0.5-2.7,0.9-4,1.4c1.4,1.1,2.8,2.3,4.1,3.3c1.6,1.2,3.1,2.4,4.5,3.7
				c-1.9-5.6-3.9-11.1-6-16.6c-3.6,2.2-7.5,3.2-11.6,3.7C279.3-209.7,281.6-208.2,283.7-206.6 M282.8-242.7c0,0.1,0,0.3,0.1,0.4
				c0.8,0.1,1.6,0.6,2.1,1.7c8.2,16.4,14.9,33.2,18.1,51.2c0.7,0.8,1.4,1.6,2.1,2.5c1.4,1.8-0.9,4.6-2.9,3.7c-1.2,0.4-2.6,0-3.1-1.4
				c-0.1-0.3-0.2-0.6-0.3-0.9c-4.4-3.1-8.8-6.3-13.1-9.5c-5.2-3.9-12.1-7-15.9-12.2c-1-1.3-0.6-2.8,0.4-3.8c1.2-5.1,3-10.1,4.2-15.3
				c1.2-5.4,1.5-10.8,2.5-16.2C277.4-245.4,282-245.7,282.8-242.7"/>
		</g>
		<g id="g926" transform="matrix(3.7493586,0,0,3.7493586,637.9842,278.67662)">
			<path id="path928" inkscape:connector-curvature="0" class="st0" d="M251.2-246.7c1.5-1.3,3-2.7,4.6-3.9c-3.5-0.5-7-0.9-10.4-1.8
				C247.4-250.6,249.3-248.7,251.2-246.7 M265.5-248.8c-0.5-0.1-1.1-0.2-1.9-0.4c-1.1-0.3-2.2-0.5-3.3-0.7c-2,2.1-4.4,3.9-6.7,5.7
				c0.9,0.9,1.8,1.9,2.7,2.8C259-244.4,262-246.9,265.5-248.8 M262.1-235c1.4-2.4,3.2-4.7,5.5-6.3c0.1-1.8,0.1-3.6-0.2-5
				c0,0-0.1,0.1-0.1,0.1c-3.1,2.2-6,4.6-8.7,7.3C259.8-237.6,261-236.3,262.1-235 M263.9-232.8c1.4,1.7,2.9,3.4,4.2,5.2
				c-0.2-3.2-0.5-6.4-0.6-9.6C266.3-235.8,265-234.4,263.9-232.8 M235.6-261.4c0.7-0.8,1.8-1.3,3.2-1.1c7.5,1.4,14.3,4.5,22,5.3
				c3.5,0.4,8.9-0.5,11.8,2.2c2.5,2.3,2.2,6.5,2.5,9.6c0.8,9.2,1.1,18.4,1.6,27.5c0.2,5.1-6.5,4.4-7.7,1.2c-0.7-0.1-1.3-0.3-1.9-0.8
				c-13.5-11.6-25.2-25.9-35.8-40.1C229.2-260.2,233.1-262.9,235.6-261.4"/>
		</g>
		<g id="g930" transform="matrix(3.7493586,0,0,3.7493586,607.8731,226.17172)">
			<path id="path932" inkscape:connector-curvature="0" class="st1" d="M236.5-272.4c0.9-0.9,1.9-1.8,2.9-2.6
				c-1.5-1.3-2.9-2.6-4.4-3.8C235.6-276.7,236.1-274.6,236.5-272.4 M243.4-271.4C243.4-271.4,243.5-271.4,243.4-271.4
				c-0.6-0.7-1.4-1.3-2.1-1.9c-1.3,1.7-2.8,3.2-4.4,4.6c0.1,1.1,0.1,2.2,0.1,3.3C239.2-267.4,241.3-269.4,243.4-271.4 M244.9-260.3
				c1.3-1.4,2.7-2.8,4.1-4.2c1.1-1,2.7,0.6,1.7,1.7c-1,1-2,2-3,3c1.8,0.4,3.5,0.7,5.1,1c1.9,0.4,3.8,0.8,5.7,1.3
				c-4.2-4.1-8.5-8.1-12.9-12c-2.2,3.6-5.2,6.3-8.7,8.6C239.5-261.1,242.2-260.8,244.9-260.3 M227.6-292c0.1,0.1,0.2,0.2,0.3,0.3
				c0.8-0.2,1.7-0.1,2.6,0.5c14.7,10.9,28.3,22.8,39.4,37.4c1,0.4,2,0.8,3,1.3c2.1,0.9,1.3,4.5-0.9,4.6c-0.9,0.9-2.4,1.2-3.4,0.2
				c-0.2-0.2-0.5-0.5-0.7-0.7c-5.3-0.7-10.7-1.6-16-2.5c-6.4-1.1-13.9-0.7-19.7-3.6c-1.4-0.7-1.8-2.2-1.4-3.6
				c-1.2-5.1-1.9-10.4-3.2-15.5c-1.4-5.3-3.6-10.3-5.1-15.5C221.7-291.9,225.6-294.3,227.6-292"/>
		</g>
		<g id="g934" transform="matrix(3.7493586,0,0,3.7493586,528.64166,208.0972)">
			<path id="path936" inkscape:connector-curvature="0" class="st0" d="M197.7-281.3c0.7-1.9,1.5-3.8,2.3-5.6
				c-3.4,1.2-6.7,2.4-10.1,3.1C192.5-282.9,195.1-282.1,197.7-281.3 M209.5-289.6c-0.5,0.2-1.1,0.3-1.9,0.5
				c-1.1,0.3-2.1,0.6-3.2,0.9c-0.9,2.8-2.1,5.5-3.4,8.2c1.2,0.4,2.5,0.8,3.7,1.3C205.7-282.7,207.2-286.3,209.5-289.6 M212.7-275.7
				c0.2-2.8,0.7-5.7,2-8.2c-0.7-1.6-1.5-3.3-2.5-4.4c0,0,0,0.1,0,0.1c-1.7,3.4-3.3,6.9-4.4,10.5C209.5-277,211.1-276.4,212.7-275.7
				 M215.4-274.6c2,0.9,4.1,1.7,6.1,2.7c-1.6-2.7-3.3-5.5-4.9-8.2C216.1-278.4,215.6-276.5,215.4-274.6 M177.1-287.2
				c0.2-1.1,1-2,2.4-2.4c7.4-2.1,14.8-2.5,22-5.3c3.3-1.3,7.7-4.5,11.5-3.4c3.3,1,4.9,4.8,6.5,7.4c4.9,7.8,9.4,15.8,13.9,23.8
				c2.5,4.5-3.8,6.8-6.4,4.6c-0.6,0.2-1.3,0.3-2,0.2c-17.3-4.2-34.2-11.6-50.1-19.5C172-283.3,174.2-287.4,177.1-287.2"/>
		</g>
		<g id="g938" transform="matrix(3.7493586,0,0,3.7493586,477.97583,174.9851)">
			<path id="path940" inkscape:connector-curvature="0" class="st1" d="M172.9-297.5c0.4-1.2,0.8-2.4,1.4-3.6
				c-1.9-0.5-3.8-1-5.7-1.4C170.2-300.9,171.6-299.2,172.9-297.5 M179.6-299.7C179.6-299.7,179.6-299.7,179.6-299.7
				c-0.9-0.3-1.8-0.5-2.8-0.8c-0.4,2.1-1.1,4.1-1.8,6.1c0.6,0.9,1.1,1.9,1.6,2.9C177.6-294.2,178.5-297,179.6-299.7 M185.9-290.5
				c0.6-1.9,1.1-3.7,1.8-5.6c0.5-1.4,2.6-0.7,2.2,0.7c-0.4,1.4-0.8,2.7-1.3,4.1c1.8-0.5,3.5-0.9,5-1.4c1.9-0.6,3.8-1,5.7-1.5
				c-5.6-1.7-11.3-3.3-17-4.9c-0.3,4.2-1.8,8-3.8,11.6C180.8-288.7,183.3-289.7,185.9-290.5 M156.1-310.9c0.1,0.1,0.3,0.1,0.4,0.2
				c0.6-0.6,1.4-0.9,2.6-0.7c18.1,3,35.6,7.5,52.1,15.4c1.1-0.1,2.2-0.2,3.3-0.3c2.3-0.1,3.2,3.4,1.3,4.5c-0.4,1.2-1.6,2.1-2.9,1.7
				c-0.3-0.1-0.6-0.2-0.9-0.3c-5.1,1.8-10.2,3.4-15.4,5c-6.2,1.9-12.7,5.7-19.2,5.7c-1.6,0-2.6-1.2-2.9-2.5c-3.4-4-6.4-8.4-9.9-12.3
				c-3.6-4.1-7.9-7.5-11.6-11.5C150.8-308.1,153.3-312.1,156.1-310.9"/>
		</g>
		<g id="g942" transform="matrix(3.7493586,0,0,3.7493586,399.17406,194.85109)">
			<path id="path944" inkscape:connector-curvature="0" class="st0" d="M134.3-287.7c-0.2-2-0.4-4-0.4-6c-2.5,2.6-4.9,5.1-7.6,7.4
				C129-286.9,131.7-287.3,134.3-287.7 M141.1-300.6c-0.4,0.4-0.8,0.8-1.4,1.3c-0.9,0.7-1.6,1.5-2.4,2.2c0.5,2.9,0.6,5.9,0.7,8.8
				c1.3-0.2,2.6-0.4,3.9-0.5C140.9-292.7,140.6-296.5,141.1-300.6 M150.3-289.7c-1.1-2.6-1.9-5.4-1.9-8.2c-1.4-1.1-2.9-2.2-4.2-2.8
				c0,0.1,0,0.1,0,0.1c0,3.8,0.2,7.6,0.8,11.3C146.8-289.3,148.5-289.5,150.3-289.7 M153.1-289.9c2.2-0.2,4.4-0.3,6.6-0.4
				c-2.7-1.7-5.4-3.4-8.1-5.1C152-293.5,152.5-291.7,153.1-289.9 M113.3-283.7c-0.3-1,0-2.3,1-3.2c5.6-5.2,12-8.9,17.2-14.7
				c2.4-2.6,4.8-7.5,8.7-8.2c3.3-0.6,6.6,2.1,9.2,3.7c7.9,4.8,15.5,9.9,23.2,14.9c4.3,2.8-0.3,7.8-3.6,7c-0.5,0.5-1,0.9-1.7,1
				c-17.3,4.1-35.7,5.2-53.5,5.4C110.5-277.9,110.6-282.6,113.3-283.7"/>
		</g>
		<g id="g946" transform="matrix(3.7493586,0,0,3.7493586,338.9976,188.34932)">
			<path id="path948" inkscape:connector-curvature="0" class="st1" d="M104.9-290.9c-0.2-1.3-0.3-2.5-0.4-3.8
				c-1.9,0.4-3.8,0.9-5.7,1.3C100.9-292.7,102.9-291.9,104.9-290.9 M109.8-295.9C109.8-296,109.8-296,109.8-295.9
				c-0.9,0.1-1.9,0.4-2.8,0.6c0.6,2.1,0.9,4.1,1.2,6.3c0.9,0.6,1.8,1.2,2.7,1.8C110.6-290.2,110.1-293,109.8-295.9 M119.6-290.6
				c-0.4-1.9-0.7-3.8-0.9-5.8c-0.2-1.5,2-1.8,2.3-0.4c0.3,1.4,0.5,2.8,0.7,4.2c1.3-1.2,2.7-2.4,3.9-3.5c1.4-1.3,2.9-2.6,4.4-3.9
				c-5.8,1-11.6,2.1-17.3,3.4c1.6,3.9,2,7.9,1.8,12C115.9-286.7,117.7-288.7,119.6-290.6 M83.8-295.3c0.1,0,0.3,0,0.4,0
				c0.3-0.8,0.9-1.4,2-1.8c17.5-5.5,35.1-9.5,53.4-9.9c0.9-0.6,1.9-1.2,2.8-1.7c2-1.1,4.4,1.6,3.2,3.4c0.2,1.2-0.4,2.6-1.8,2.9
				c-0.3,0.1-0.6,0.1-1,0.2c-3.7,3.9-7.6,7.7-11.4,11.5c-4.6,4.5-8.8,10.8-14.5,13.8c-1.4,0.7-2.9,0.1-3.7-0.9
				c-4.9-2-9.5-4.5-14.4-6.5c-5.1-2-10.4-3.1-15.6-5C80.4-290.4,80.8-295,83.8-295.3"/>
		</g>
		<g id="g950" transform="matrix(3.7493586,0,0,3.7493586,277.80431,241.8253)">
			<path id="path952" inkscape:connector-curvature="0" class="st0" d="M75-264.7c-1.1-1.7-2.2-3.4-3.1-5.2c-1,3.4-2,6.8-3.4,10
				C70.6-261.5,72.7-263.2,75-264.7 M75.1-279.2c-0.2,0.5-0.4,1.1-0.7,1.8c-0.4,1-0.8,2.1-1.2,3.1c1.8,2.4,3.2,4.9,4.6,7.5
				c1.1-0.7,2.1-1.5,3.2-2.3C78.5-272.1,76.5-275.4,75.1-279.2 M88.3-273.7c-2.2-1.8-4.1-3.9-5.4-6.4c-1.8-0.4-3.6-0.7-5-0.6
				c0,0,0.1,0.1,0.1,0.1c1.7,3.4,3.6,6.7,5.9,9.7C85.3-271.8,86.8-272.8,88.3-273.7 M90.7-275.2c1.9-1.1,3.8-2.3,5.7-3.4
				c-3.2-0.3-6.4-0.5-9.5-0.9C88.1-277.9,89.3-276.5,90.7-275.2 M58-251.6c-0.7-0.8-1-2-0.5-3.4c2.6-7.2,6.6-13.4,8.6-20.9
				c0.9-3.4,0.9-8.8,4.1-11.3c2.7-2.1,6.8-1.1,9.9-0.9c9.2,0.7,18.3,1.7,27.4,2.8c5.1,0.6,3.3,7.1,0,7.8c-0.2,0.6-0.5,1.2-1,1.7
				c-13.5,11.6-29.5,20.9-45.2,29.1C58.2-245.2,56.2-249.4,58-251.6"/>
		</g>
		<g id="g954" transform="matrix(3.7493586,0,0,3.7493586,221.23512,263.35187)">
			<path id="path956" inkscape:connector-curvature="0" class="st1" d="M47.3-254.2c-0.8-1-1.5-2.1-2.1-3.2c-1.5,1.3-3,2.5-4.5,3.8
				C42.9-254,45.1-254.2,47.3-254.2 M49.4-260.9C49.4-260.9,49.4-261,49.4-260.9c-0.8,0.5-1.5,1.2-2.2,1.8c1.5,1.6,2.7,3.3,3.9,5
				c1.1,0.1,2.2,0.2,3.3,0.4C52.7-256.1,51-258.5,49.4-260.9 M60.6-260.6c-1.2-1.6-2.4-3.1-3.5-4.7c-0.8-1.3,1-2.6,1.9-1.4
				c0.9,1.1,1.7,2.3,2.5,3.4c0.6-1.7,1.3-3.4,1.8-4.9c0.7-1.8,1.4-3.7,2.1-5.5c-4.7,3.6-9.3,7.2-13.9,10.9c3.2,2.7,5.4,6.1,7.1,9.9
				C59-255.5,59.7-258.1,60.6-260.6 M26.5-248.6c0.1-0.1,0.3-0.1,0.4-0.2c-0.1-0.8,0.1-1.7,0.9-2.5c13.1-12.9,27-24.4,43.1-33.1
				c0.6-0.9,1.1-1.9,1.7-2.8c1.3-1.9,4.6-0.6,4.4,1.6c0.7,1,0.8,2.5-0.3,3.4c-0.3,0.2-0.5,0.4-0.8,0.6c-1.5,5.2-3.2,10.3-5,15.4
				c-2.1,6.1-2.9,13.6-6.7,18.9c-0.9,1.3-2.5,1.4-3.7,0.8c-5.3,0.4-10.5,0.3-15.8,0.8c-5.5,0.5-10.7,1.9-16.1,2.6
				C25.7-242.7,23.9-246.9,26.5-248.6"/>
		</g>
		<g id="g958" transform="matrix(3.7493586,0,0,3.7493586,190.98868,338.78071)">
			<path id="path960" inkscape:connector-curvature="0" class="st0" d="M32.5-217.3c-1.7-1-3.5-2.1-5.1-3.2c0.6,3.5,1.3,7,1.5,10.5
				C30-212.5,31.2-214.9,32.5-217.3 M26-230.3c0.1,0.5,0.2,1.1,0.2,1.9c0.1,1.1,0.2,2.2,0.4,3.3c2.6,1.3,5.1,3,7.5,4.6
				c0.6-1.2,1.2-2.3,1.9-3.5C32.3-225.5,29-227.5,26-230.3 M40.3-231.3c-2.8-0.6-5.5-1.6-7.7-3.3c-1.7,0.5-3.5,1-4.7,1.8
				c0,0,0.1,0,0.1,0.1c3,2.2,6.3,4.3,9.6,6C38.5-228.3,39.4-229.8,40.3-231.3 M41.8-233.7c1.2-1.9,2.4-3.8,3.6-5.6
				c-3,1.2-5.9,2.4-8.9,3.6C38.2-235,39.9-234.3,41.8-233.7 M23.4-197.9c-1-0.4-1.8-1.3-2-2.7c-0.9-7.6-0.2-15-1.8-22.6
				c-0.7-3.5-3.2-8.3-1.5-11.9c1.5-3.1,5.5-4.1,8.4-5.3c8.5-3.6,17.1-6.8,25.7-10c4.8-1.8,6.2,4.8,3.5,7c0.1,0.6,0.1,1.3-0.2,2
				c-6.8,16.4-16.8,32-27.1,46.4C26.5-192.3,22.7-195.1,23.4-197.9"/>
		</g>
		<g id="g962" transform="matrix(3.7493586,0,0,3.7493586,150.35799,383.64292)">
			<path id="path964" inkscape:connector-curvature="0" class="st1" d="M12.6-195.4c-1.2-0.6-2.3-1.2-3.3-1.9
				c-0.8,1.8-1.5,3.6-2.3,5.4C8.8-193.2,10.7-194.3,12.6-195.4 M11.4-202.3C11.4-202.3,11.4-202.3,11.4-202.3
				c-0.4,0.8-0.8,1.7-1.2,2.6c2,0.7,3.9,1.7,5.7,2.7c1-0.4,2.1-0.8,3.1-1.1C16.5-199.5,14-200.8,11.4-202.3 M21.5-207.1
				c-1.8-0.8-3.5-1.7-5.2-2.7c-1.3-0.7-0.3-2.7,1.1-2.1c1.3,0.6,2.6,1.2,3.8,1.9c-0.2-1.8-0.4-3.6-0.6-5.2c-0.3-1.9-0.4-3.9-0.6-5.8
				c-2.6,5.3-5.1,10.6-7.5,16c4.1,1,7.6,3,10.8,5.6C22.4-201.8,21.9-204.4,21.5-207.1 M-3.3-180.9c0.1-0.1,0.2-0.2,0.2-0.4
				c-0.5-0.7-0.7-1.6-0.3-2.7c5.8-17.4,13-34,23.4-49c0.1-1.1,0.1-2.2,0.3-3.3c0.3-2.3,3.9-2.6,4.6-0.6c1.1,0.6,1.9,1.9,1.2,3.2
				c-0.1,0.3-0.3,0.6-0.4,0.9c1,5.3,1.8,10.6,2.6,16c0.9,6.4,3.6,13.4,2.6,19.8c-0.2,1.6-1.6,2.4-2.9,2.4c-4.5,2.8-9.3,5-13.7,7.9
				c-4.6,2.9-8.7,6.6-13.2,9.7C-1.4-175.2-4.9-178.2-3.3-180.9"/>
		</g>
		<g id="g966" transform="matrix(3.7493586,0,0,3.7493586,157.652,464.58181)">
			<path id="path968" inkscape:connector-curvature="0" class="st0" d="M16.2-155.7c-2-0.1-4-0.3-6-0.5c2.1,2.8,4.3,5.6,6.1,8.7
				C16.2-150.3,16.1-153,16.2-155.7 M4.5-164.4c0.3,0.4,0.6,0.9,1.1,1.6c0.6,1,1.2,1.9,1.8,2.8c2.9-0.1,5.9,0.3,8.8,0.7
				c0-1.3,0-2.6,0.1-3.9C12.3-162.9,8.4-163.3,4.5-164.4 M16.8-171.8c-2.7,0.7-5.6,1-8.4,0.6C7-170,5.7-168.7,5-167.5
				c0,0,0.1,0,0.1,0c3.7,0.6,7.5,1,11.3,1C16.5-168.3,16.6-170,16.8-171.8 M17-174.6c0.2-2.2,0.4-4.4,0.7-6.6
				c-2.1,2.4-4.2,4.8-6.3,7.2C13.2-174.1,15.1-174.2,17-174.6 M16.9-134.3c-1.1,0.1-2.2-0.3-3-1.5c-4.3-6.3-7-13.3-11.9-19.3
				c-2.2-2.8-6.6-5.9-6.8-9.9c-0.1-3.4,3.1-6.2,5.1-8.5c5.9-7,12.2-13.8,18.4-20.6c3.5-3.8,7.7,1.5,6.3,4.6c0.4,0.5,0.7,1.1,0.8,1.8
				c1.4,17.8-0.5,36.1-3.1,53.7C22.2-130.7,17.5-131.5,16.9-134.3"/>
		</g>
		<g id="g970" transform="matrix(3.7493586,0,0,3.7493586,141.81733,523.00019)">
			<path id="path972" inkscape:connector-curvature="0" class="st1" d="M8.4-127.2c-1.3,0-2.6-0.1-3.9-0.2c0.1,1.9,0.3,3.9,0.4,5.8
				C6-123.5,7.1-125.4,8.4-127.2 M4.2-132.8C4.2-132.8,4.2-132.8,4.2-132.8c0,0.9,0.1,1.9,0.1,2.9c2.1-0.3,4.2-0.3,6.4-0.2
				c0.7-0.8,1.5-1.6,2.2-2.4C10.1-132.6,7.1-132.6,4.2-132.8 M11-141.7c-2,0.1-3.9,0.1-5.9,0c-1.5-0.1-1.5-2.3,0-2.3
				c1.4,0,2.8-0.1,4.3,0c-1-1.5-2-3-2.9-4.4c-1.1-1.6-2.2-3.3-3.2-4.9c0.1,5.9,0.3,11.8,0.6,17.6c4.1-1,8.1-0.8,12.2,0.1
				C14.3-137.4,12.6-139.5,11-141.7 M0.8-107c0-0.1,0-0.3,0.1-0.4c-0.7-0.4-1.3-1.1-1.5-2.2C-3.3-127.9-4.5-145.8-2-164
				c-0.4-1-0.9-2-1.3-3c-0.8-2.1,2.3-4.1,3.9-2.6c1.2,0,2.5,0.8,2.5,2.3c0,0.3,0,0.7,0,1c3.3,4.3,6.4,8.7,9.5,13.1
				C16.4-148,22-143,24-136.8c0.5,1.5-0.3,2.9-1.5,3.5c-2.8,4.5-6,8.7-8.7,13.2c-2.8,4.7-4.7,9.8-7.3,14.6
				C5.1-102.9,0.6-104,0.8-107"/>
		</g>
		<g id="g974" transform="matrix(3.7493586,0,0,3.7493586,185.06169,591.80617)">
			<path id="path976" inkscape:connector-curvature="0" class="st0" d="M29.6-93.5c-1.8,0.8-3.7,1.6-5.6,2.3c3.2,1.6,6.4,3.1,9.4,5
				C32.1-88.6,30.8-91.1,29.6-93.5 M15.3-95.9c0.5,0.2,1,0.5,1.7,1c0.9,0.6,1.9,1.1,2.9,1.6c2.6-1.4,5.4-2.4,8.2-3.4
				c-0.6-1.2-1.2-2.4-1.7-3.5C22.9-98.2,19.3-96.7,15.3-95.9 M22.8-108c-2.1,1.9-4.5,3.5-7.2,4.3c-0.6,1.7-1.2,3.4-1.3,4.8
				c0,0,0.1-0.1,0.1-0.1c3.6-1.1,7.2-2.5,10.5-4.3C24.2-104.8,23.5-106.4,22.8-108 M21.8-110.7c-0.8-2.1-1.7-4.1-2.4-6.2
				c-0.8,3.1-1.5,6.2-2.3,9.3C18.6-108.5,20.2-109.5,21.8-110.7 M39.9-74.7c-0.9,0.6-2.1,0.7-3.4,0c-6.7-3.7-12.2-8.7-19.3-11.8
				c-3.2-1.4-8.6-2.2-10.5-5.8c-1.6-3-0.1-6.9,0.6-9.9c2.1-9,4.6-17.8,7-26.7c1.4-4.9,7.5-2.2,7.7,1.3c0.6,0.3,1.1,0.7,1.5,1.3
				c9.3,15.2,16,32.4,21.6,49.2C46.3-73.9,41.8-72.5,39.9-74.7"/>
		</g>
		<g id="g978" transform="matrix(3.7493586,0,0,3.7493586,197.47393,651.04605)">
			<path id="path980" inkscape:connector-curvature="0" class="st1" d="M35.7-64.5c-1.1,0.6-2.3,1.1-3.5,1.6c1,1.7,2,3.3,3,5
				C35.2-60.1,35.3-62.3,35.7-64.5 M29.4-67.6C29.3-67.6,29.3-67.6,29.4-67.6c0.4,0.8,0.9,1.7,1.4,2.5c1.8-1.2,3.7-2.1,5.6-3
				c0.3-1.1,0.6-2.1,0.9-3.2C34.6-70.1,32-68.8,29.4-67.6 M31.4-78.6c-1.7,0.9-3.4,1.8-5.2,2.7c-1.4,0.6-2.4-1.4-1.1-2.1
				c1.3-0.7,2.5-1.3,3.8-2c-1.6-0.9-3.1-1.8-4.6-2.6c-1.7-0.9-3.4-1.9-5.1-3c2.8,5.2,5.6,10.3,8.6,15.4c3.2-2.7,6.9-4.4,10.9-5.5
				C36.2-76.2,33.8-77.4,31.4-78.6 M38-43.1c-0.1-0.1-0.1-0.3-0.2-0.4c-0.8,0-1.6-0.4-2.3-1.3c-10.6-15-19.9-30.4-25.9-47.7
				c-0.8-0.7-1.7-1.4-2.5-2.1c-1.7-1.5,0.2-4.7,2.3-4.1c1.1-0.5,2.6-0.4,3.3,0.9c0.2,0.3,0.3,0.6,0.5,0.9c4.9,2.3,9.7,4.8,14.4,7.3
				c5.7,3,13,5,17.6,9.5c1.1,1.1,1,2.7,0.2,3.8C45-71.1,44-65.9,43.7-60.7c-0.3,5.5,0.2,10.9,0.1,16.3C43.7-41.4,39.2-40.3,38-43.1"
				/>
		</g>
		<g id="g982" transform="matrix(3.7493586,0,0,3.7493586,280.22941,706.72063)">
			<path id="path984" inkscape:connector-curvature="0" class="st0" d="M76.1-37.3c-1.1,1.7-2.3,3.3-3.5,4.9c3.5-0.4,7-0.9,10.6-0.9
				C80.8-34.5,78.5-35.9,76.1-37.3 M62.8-31.6c0.5,0,1.1-0.1,1.9-0.1c1.1,0,2.2-0.1,3.3-0.2c1.4-2.6,3.3-4.9,5.1-7.2
				c-1.1-0.7-2.2-1.4-3.4-2.1C68-37.6,65.8-34.4,62.8-31.6 M62.6-45.9c-0.8,2.7-1.9,5.4-3.8,7.5c0.4,1.8,0.8,3.6,1.5,4.8
				c0,0,0-0.1,0.1-0.1c2.4-2.9,4.7-6,6.6-9.2C65.6-43.9,64.1-44.9,62.6-45.9 M60.3-47.5c-1.8-1.3-3.6-2.6-5.4-3.9c1,3,2,6.1,3,9.1
				C58.8-44,59.7-45.7,60.3-47.5 M95-27c-0.5,1-1.4,1.7-2.9,1.8c-7.6,0.5-15-0.7-22.6,0.4c-3.5,0.5-8.5,2.7-12,0.8
				c-3-1.6-3.8-5.8-4.8-8.7c-3.1-8.7-5.7-17.5-8.4-26.3c-1.5-4.9,5.2-5.8,7.2-3.1c0.7-0.1,1.3,0,2,0.3c16,7.8,30.9,18.7,44.7,29.9
				C100.8-29.7,97.7-26.2,95-27"/>
		</g>
		<g id="g986" transform="matrix(3.7493586,0,0,3.7493586,322.53416,750.00773)">
			<path id="path988" inkscape:connector-curvature="0" class="st1" d="M96.8-16.1c-0.6,1.1-1.4,2.2-2.1,3.2
				c1.7,0.9,3.5,1.8,5.2,2.6C98.8-12.1,97.7-14.1,96.8-16.1 M89.9-15.3C89.9-15.3,89.8-15.3,89.9-15.3c0.8,0.5,1.7,0.9,2.5,1.3
				c0.8-2,1.9-3.8,3.1-5.6c-0.4-1-0.7-2.1-0.9-3.2C93-20.3,91.5-17.8,89.9-15.3 M85.7-25.7c-0.9,1.7-1.9,3.4-3,5.1
				c-0.8,1.3-2.7,0.1-2-1.2c0.7-1.3,1.4-2.5,2.1-3.7c-1.8,0.1-3.6,0.2-5.2,0.3c-2,0.1-3.9,0.2-5.9,0.2c5.1,2.9,10.3,5.7,15.5,8.4
				c1.2-4,3.5-7.4,6.2-10.5C91-26.3,88.4-25.9,85.7-25.7 M110.3,0.7c-0.1-0.1-0.2-0.2-0.3-0.3c-0.7,0.4-1.6,0.6-2.7,0.1
				c-17-6.9-33.1-15-47.5-26.3c-1.1-0.1-2.2-0.3-3.3-0.5c-2.2-0.4-2.4-4-0.3-4.7c0.6-1,2-1.7,3.2-1c0.3,0.2,0.6,0.3,0.9,0.5
				c5.4-0.6,10.7-1.1,16.1-1.6c6.4-0.5,13.6-2.8,20-1.4c1.6,0.3,2.3,1.7,2.3,3.1c2.5,4.7,4.5,9.6,7,14.2c2.6,4.8,6,9.1,8.9,13.7
				C116.1-0.9,112.9,2.4,110.3,0.7"/>
		</g>
	</g>
	<g class="st2">
		<path class="st3" d="M2201.4,1441.4c1.4,5.8-2.2,10.2-10.9,13l-28.2,4.3l-143.4,26.1l-26.1,4.3c-2.9,1.4-6.2,0.3-9.8-3.3
			c-3.6-3.6-5.4-6.9-5.4-9.8c0-13-0.7-33.7-2.2-61.9c-1.5-28.2-3.6-58.3-6.5-90.2c-2.9-31.8-6.2-62.6-9.8-92.3
			c-3.6-29.7-6.2-52.5-7.6-68.4l-80.4-636.6c0-10.1-2.9-11.6-8.7-4.3l-328.1,680.1c-7.3,14.5-15.2,31.5-23.9,51.1
			c-8.7,19.6-17.4,39.5-26.1,59.8c-8.7,20.3-17,39.9-25,58.7c-8,18.8-14.9,34.8-20.6,47.8c-5.8,18.8-12.3,29.7-19.6,32.6l-41.3,15.2
			c-10.2,2.9-18.1-1.5-23.9-13c-4.3-13-12.3-32.9-23.9-59.8c-11.6-26.8-24.3-55.7-38-86.9c-13.8-31.1-27.5-62.3-41.3-93.4
			c-13.8-31.1-25-56.8-33.7-77.1L921.6,522.3c-4.3-5.8-7.3-4.3-8.7,4.3l-76,608.4c-1.5,14.5-3.6,36.6-6.5,66.3
			c-2.9,29.7-6.2,60.8-9.8,93.4c-3.6,32.6-6.2,63-7.6,91.3c-1.5,28.2-2.2,48.9-2.2,61.9c0,8.7-5.1,13-15.2,13h-15.2H608.7h-15.2
			c-10.1,0-13.8-4.3-10.9-13c4.3-13,9.4-33.7,15.2-61.9c5.8-28.2,11.2-58.7,16.3-91.3c5.1-32.6,10.1-63.7,15.2-93.4
			c5.1-29.7,8.3-51.8,9.8-66.3l115.2-869.1c1.4-13,3.6-33.3,6.5-60.8c2.9-27.5,5.4-56.5,7.6-86.9s4.3-59.7,6.5-88
			c2.2-28.2,3.3-49.6,3.3-64.1c0-14.5,4.3-23.9,13-28.2l43.5-15.2c8.7-1.4,15.2,2.2,19.6,10.9c5.8,17.4,14.5,40.2,26.1,68.4
			c11.6,28.2,23.9,58.3,36.9,90.2c13,31.9,26.1,63.4,39.1,94.5c13,31.2,25.3,58.3,36.9,81.5l391.1,812.6c2.9,7.3,5.4,10.9,7.6,10.9
			c2.2,0,4.7-3.6,7.6-10.9l393.3-812.6c5.8-13,15.2-34,28.2-63c13-29,26.8-59.8,41.3-92.3c14.5-32.6,28.2-63.7,41.3-93.4
			c13-29.7,21.7-51.8,26.1-66.3c2.9-8.7,9.4-13,19.6-13h15.2h10.9h15.2c10.1,0,15.2,4.3,15.2,13c0,14.5,1.1,36.2,3.3,65.2
			c2.2,29,4.7,59.8,7.6,92.3c2.9,32.6,5.8,63.4,8.7,92.3c2.9,29,5.1,50,6.5,63l113,862.6c1.4,16,4.7,38.8,9.8,68.4
			c5.1,29.7,10.5,60.5,16.3,92.3c5.8,31.9,11.2,61.9,16.3,90.2C2192.3,1407.7,2197,1428.3,2201.4,1441.4z"/>
	</g>
</g>
</svg>
